<svg width="3976" height="2223" viewBox="0 0 3976 2223" fill="none" xmlns="http://www.w3.org/2000/svg">
<path d="M1478.78 17.1161C1478.78 17.1161 2449.13 153.63 2358.8 398.536C2306.54 540.22 2476.37 488.848 2673.12 437.476C2816.4 400.052 2974.02 362.628 3070.43 399.842C3233.28 462.707 3168.18 654.075 3246.96 731.186C3342.43 824.644 3439.1 806.49 3542.91 788.339C3635.53 772.15 3733.88 755.961 3842.26 818.935C4072.18 952.517 3807.69 2172.85 3714.08 2172.68L337.504 2195.39L295.081 2196.69C295.081 2196.69 -84.7166 1838.21 150.666 1628.67C386.051 1419.12 188.217 1321.6 159.61 1240.61C126.765 1147.64 165.15 883.487 500.203 767.26C743.049 683.02 749.553 388.515 739.693 335.075C739.693 335.075 645.768 -87.5528 1478.78 17.1161" fill="#EAFCFC"/>
<path d="M2621 1411.11C2621.09 1407.95 2625.45 1405.51 2627.75 1408.31C2630.06 1411.08 2629.97 1409.2 2632.22 1415.23C2638.67 1432.53 2648.14 1449.28 2659.15 1463.91C2680.29 1491.93 2701.21 1506.08 2724.97 1520.09C2715.17 1498.09 2708.62 1474.61 2707.78 1450.92C2707.48 1442.28 2707.65 1433.33 2711.35 1425.41C2712.39 1423.2 2716.36 1423.65 2716.77 1426.12C2718.76 1438.35 2715.82 1447.56 2719.78 1469.44C2729.25 1521.64 2766.69 1577.01 2802.82 1615.79C2795.9 1550.15 2792.53 1475.55 2804.92 1409.33C2806.95 1398.48 2810.18 1388.15 2813.18 1377.53C2813.89 1375.04 2817.44 1376.12 2817.01 1378.6C2816.38 1382.12 2810.48 1427.68 2810.13 1430.83C2804.4 1481.24 2805.55 1537.11 2810 1588.04C2838.03 1550.17 2856.78 1505.89 2865.54 1459.65C2868.15 1445.97 2868.84 1431.87 2872.46 1418.45C2872.97 1416.6 2876.04 1416.4 2876.41 1418.45C2880.15 1438.55 2872.67 1474.11 2867.22 1493.43C2856.19 1532.57 2838.52 1567.67 2814.37 1599.03C2813.42 1600.24 2853.16 1906.6 2852.08 1910.48C2850.27 1917.01 2838.85 1921.61 2837.1 1910C2836.36 1905.28 2814.56 1719 2804.7 1632.71C2800.98 1630.67 2798.58 1627.03 2789 1616.29C2766.86 1591.44 2744.95 1560.52 2730.31 1531.37C2721.53 1530.87 2658.08 1500.07 2626.58 1429.92C2625.69 1427.89 2621.6 1418.4 2621.02 1416.28C2620.5 1414.47 2620.95 1412.89 2621 1411.11" fill="#29446D"/>
<path d="M2824.79 1311.77C2824.07 1302.34 2823.68 1292.7 2823.68 1282.89C2823.68 1173.46 2870.22 1084.76 2927.64 1084.76C2985.06 1084.76 3031.61 1173.46 3031.61 1282.89C3031.61 1292.7 3031.24 1302.34 3030.51 1311.77H2824.79" fill="#184655"/>
<path d="M2707.11 1263.08C2706.38 1249.79 2706 1236.19 2706 1222.35C2706 1068.03 2752.56 942.932 2809.96 942.932C2867.39 942.932 2913.94 1068.03 2913.94 1222.35C2913.94 1236.19 2913.55 1249.79 2912.83 1263.08H2707.11Z" fill="#3C8F7C"/>
<path d="M2745.17 1434.31C2745.9 1424.88 2746.27 1415.23 2746.27 1405.43C2746.27 1296 2699.72 1207.3 2642.31 1207.3C2584.89 1207.3 2538.36 1296 2538.36 1405.43C2538.36 1415.23 2538.73 1424.88 2539.44 1434.31H2745.17" fill="#3C8F7C"/>
<path d="M2911.57 1434.31C2912.48 1421 2912.97 1407.41 2912.97 1393.57C2912.97 1239.25 2853.96 1114.16 2781.17 1114.16C2708.38 1114.16 2649.38 1239.25 2649.38 1393.57C2649.38 1407.41 2649.87 1421 2650.77 1434.31H2911.57Z" fill="#184655"/>
<path d="M2810.38 1114.16C2846.75 1114.16 2879.26 1153.84 2900.71 1216.08C2911.62 1210.37 2923.24 1207.29 2935.27 1207.29C2999.84 1207.29 3052.21 1296 3052.21 1405.42C3052.21 1415.22 3051.78 1424.88 3050.97 1434.3H2694.68C2693.87 1421 2693.44 1407.41 2693.44 1393.57C2693.44 1239.25 2745.81 1114.16 2810.38 1114.16Z" fill="#3C8F7C"/>
<path d="M2571.94 1777.72C2304.84 1800.55 1958.65 1931.23 1613.61 2034.13C2251.49 2103.57 3188.96 2216.92 3247.26 2218.41L3148.54 2218.32L3287.73 2220.61L3667.63 2215.31C3490.48 2096.28 2839.05 1754.9 2571.94 1777.72Z" fill="#3C8F7C"/>
<path d="M340.687 1930.51H321.029V1712.65H340.687V1930.51Z" fill="#355389"/>
<path d="M330.859 1290.04L266.692 1808.49H395.025L330.859 1290.04Z" fill="#327765"/>
<path d="M289.964 1620.45L381.46 1698.89L377.943 1670.48L292.807 1597.48L289.964 1620.45" fill="#50BFA5"/>
<path d="M304.029 1506.81L360.057 1525.96L357.423 1504.68L306.449 1487.25L304.029 1506.81" fill="#50BFA5"/>
<path d="M591.099 2000.23H571.663V1659.72H591.099V2000.23Z" fill="#355389"/>
<path d="M586.472 1052.65L490.697 1739.95H682.247L586.472 1052.65Z" fill="#327765"/>
<path d="M496.773 1696.33L668.621 1642.17L666.024 1623.53L499.609 1675.99L496.773 1696.33Z" fill="#50BFA5"/>
<path d="M527.031 1479.21L640.911 1443.32L638.313 1424.68L529.867 1458.87L527.031 1479.21Z" fill="#50BFA5"/>
<path d="M126.971 2212.32C126.971 2212.32 525.537 1897.41 1039.45 1878.07C1212.03 1871.57 3162.37 2213.21 3247.27 2216.32L126.971 2212.32Z" fill="#96D9C9"/>
<path d="M3688.6 1966.89C3703.73 1927.56 3718.53 1888.21 3729.29 1847.29C3762.37 1721.37 3754.38 1629.6 3753.14 1585.47C3752.97 1579.64 3762.34 1578.04 3763.16 1584.05C3765.96 1604.77 3766.58 1625.81 3766.73 1646.7C3766.96 1682.03 3764.8 1717.35 3760.29 1752.64C3784.54 1758.96 3807.5 1749.49 3826.27 1732.51C3858.62 1703.2 3870.2 1664.16 3875.26 1620.89C3875.78 1616.48 3875.96 1612.29 3879.55 1609.75C3880.34 1607.48 3883.67 1606.77 3884.48 1610.16C3889.62 1615.44 3887.14 1626.01 3886.34 1632.82C3875.66 1724.95 3819.65 1769.61 3774.57 1769.21C3769.63 1769.17 3763.61 1768.93 3758.25 1767.44C3754.98 1789.47 3750.81 1811.36 3745.71 1833.01C3735.96 1874.27 3722.3 1914.08 3707.25 1953.52C3655.85 2088.4 3639.43 2157.31 3624.83 2196.35C3622.62 2204.19 3611.02 2200.91 3613.05 2192.96C3613.77 2190.13 3653.89 2057.24 3688.6 1966.89" fill="#29446D"/>
<path d="M3482.6 1612.31C3483.07 1609.4 3484.76 1607.48 3485.42 1604.76C3486.27 1601.18 3492.12 1600.81 3492.73 1604.76C3493.08 1607.02 3494.32 1608.4 3494.82 1610.72C3496.39 1618.17 3492.59 1660.13 3502.48 1724.36C3505.13 1741.43 3508.04 1758.4 3513.7 1774.71C3522.89 1801.04 3539.64 1829.43 3560.45 1847.37C3561.13 1809.75 3563.39 1772.17 3567.88 1734.8C3570.6 1712.44 3573.98 1690.18 3578.14 1668.06C3580.16 1657.28 3582.32 1646.54 3584.67 1635.83C3587.14 1624.6 3589.44 1613.81 3594.84 1603.65C3596.47 1600.52 3601.16 1601.97 3601.19 1605.44C3601.21 1615.42 3599.21 1624.6 3597.12 1634.28C3595.06 1643.93 3593.11 1653.62 3591.32 1663.32C3577.93 1735.24 3572.9 1799.09 3572.95 1871.11C3595.01 1843.36 3614.29 1810.13 3628.6 1777.49C3645.77 1738.25 3657.33 1696.04 3662.15 1653.2C3663.51 1641.21 3664.31 1629.16 3664.59 1617.1C3664.71 1610.85 3664.82 1604.6 3664.97 1598.36C3665.01 1595.15 3666.26 1585.46 3671.68 1588.3C3676.64 1590.91 3676.17 1596.74 3676.59 1601.83C3677.04 1607.38 3677.09 1612.91 3677.02 1618.48C3676.88 1629.15 3676.31 1639.81 3675.33 1650.43C3668.16 1727.36 3639.15 1803.41 3594.98 1865.74C3588.27 1875.23 3581.31 1885.41 3573.14 1893.71C3575.02 2016.85 3593.32 2172.4 3593.62 2184.84C3593.69 2187.59 3593.08 2190.39 3592.68 2193.09C3591.84 2198.69 3584.51 2197.39 3583 2193.09C3580.16 2184.99 3580.47 2181.83 3576.24 2136.91C3568.7 2056.79 3560.24 1873.27 3560.26 1865.83C3534.07 1847 3515.49 1818.03 3503.37 1787.77C3496.93 1771.72 3493.17 1755.2 3490.33 1738.11C3480.7 1679.95 3481 1621.82 3482.6 1612.31" fill="#29446D"/>
<path d="M3662.75 1511.8C3661.77 1502.93 3661.24 1493.86 3661.24 1484.63C3661.24 1381.64 3725.24 1298.16 3804.18 1298.16C3883.12 1298.16 3947.12 1381.64 3947.12 1484.63C3947.12 1493.86 3946.6 1502.93 3945.62 1511.8H3662.75Z" fill="#184655"/>
<path d="M3501 1465.97C3500.01 1453.47 3499.51 1440.67 3499.51 1427.64C3499.51 1282.41 3563.49 1164.68 3642.43 1164.68C3721.37 1164.68 3785.36 1282.41 3785.36 1427.64C3785.36 1440.67 3784.83 1453.47 3783.86 1465.97H3501" fill="#3C8F7C"/>
<path d="M3782.08 1627.12C3783.34 1614.6 3784.02 1601.8 3784.02 1588.79C3784.02 1443.55 3702.88 1325.81 3602.81 1325.81C3502.72 1325.81 3421.61 1443.55 3421.61 1588.79C3421.61 1601.8 3422.26 1614.6 3423.52 1627.12H3782.08Z" fill="#184655"/>
<path d="M3642.96 1325.81C3693 1325.81 3737.67 1363.17 3767.17 1421.74C3782.18 1416.37 3798.14 1413.46 3814.67 1413.46C3903.47 1413.46 3975.46 1496.96 3975.46 1599.93C3975.46 1609.17 3974.88 1618.24 3973.77 1627.12H3483.89C3482.78 1614.6 3482.19 1601.8 3482.19 1588.78C3482.19 1443.54 3554.18 1325.81 3642.96 1325.81" fill="#3C8F7C"/>
<path d="M2426.4 2083.19H780.313V1529.92H2426.4V2083.19Z" fill="#FAE0B2"/>
<path d="M1423.96 2083.19H775.411V1530.61L1102.13 933.4L1423.96 1529.92V2083.19Z" fill="#F7CC7F"/>
<path d="M2098.55 2099.12H1969.46V2052.88H2098.55V2099.12Z" fill="#F7CC7F"/>
<path d="M1656.71 1939.05H1500.97V1628.92H1656.71V1939.05" fill="white"/>
<path d="M1516.89 1925.16V1642.83H1648.32V1925.16H1516.89Z" fill="#86B1F2"/>
<path d="M1803.84 1939.05H1648.11V1628.92H1803.84V1939.05" fill="white"/>
<path d="M1656.49 1925.16V1642.83H1787.92V1925.16H1656.49Z" fill="#86B1F2"/>
<path d="M1103.99 1939.05H948.251V1628.92H1103.99V1939.05" fill="white"/>
<path d="M964.167 1925.16V1642.83H1095.6V1925.16H964.167Z" fill="#86B1F2"/>
<path d="M1251.12 1939.05H1095.38V1628.92H1251.12V1939.05" fill="white"/>
<path d="M1103.77 1925.16V1642.83H1235.2V1925.16H1103.77Z" fill="#86B1F2"/>
<path d="M1102.57 1463.93H997.991V1360.25C997.991 1302.49 1044.81 1255.67 1102.57 1255.67V1463.93Z" fill="white"/>
<path d="M1008.68 1454.6V1353.27C1008.68 1304.52 1048.19 1265.01 1096.94 1265.01V1454.6H1008.68Z" fill="#86B1F2"/>
<path d="M1201.37 1463.93H1096.79V1255.67C1154.55 1255.67 1201.37 1302.49 1201.37 1360.25V1463.93Z" fill="white"/>
<path d="M1102.43 1454.6V1265.01C1151.17 1265.01 1190.68 1304.52 1190.68 1353.27V1454.6H1102.43Z" fill="#86B1F2"/>
<path d="M2208.57 1939.05H2052.81V1628.92H2208.57V1939.05Z" fill="white"/>
<path d="M2068.72 1925.16V1642.83H2200.16V1925.16H2068.72Z" fill="#86B1F2"/>
<path d="M2355.68 1939.05H2199.94V1628.92H2355.68V1939.05Z" fill="white"/>
<path d="M2208.35 1925.16V1642.82H2339.77V1925.16H2208.35Z" fill="#86B1F2"/>
<path d="M1578.84 2000.89H1449.75V1954.65H1578.84V2000.89Z" fill="#F7CC7F"/>
<path d="M1656.71 2068.27H1527.61V2022.03H1656.71V2068.27Z" fill="#F7CC7F"/>
<path d="M775.411 1911.19H839.958V1864.93H775.411V1911.19Z" fill="#EFA33F"/>
<path d="M775.3 1985.31H775.411V1939.05H775.3V1985.31Z" fill="#91AE64"/>
<path d="M775.411 1985.31H882.848V1939.05H775.411V1985.31Z" fill="#EFA33F"/>
<path d="M775.3 1837.07H775.411V1790.81H775.3V1837.07Z" fill="#E3CA7E"/>
<path d="M775.411 1837.07H882.848V1790.81H775.411V1837.07Z" fill="#EFA33F"/>
<path d="M851.924 1545.37H981.024V1499.13H851.924V1545.37Z" fill="#EFA33F"/>
<path d="M896.2 1610.28H1025.3V1564.03H896.2V1610.28Z" fill="#EFA33F"/>
<path d="M1359.4 1684.39H1423.96V1638.13H1359.4V1684.39Z" fill="#EFA33F"/>
<path d="M1294.85 1768.84H1423.96V1722.59H1294.85V1768.84Z" fill="#EFA33F"/>
<path d="M1359.4 1853.28H1423.96V1807.04H1359.4V1853.28Z" fill="#EFA33F"/>
<path d="M1182.31 2016.15H1311.4V1969.91H1182.31V2016.15Z" fill="#EFA33F"/>
<path d="M1401.24 1424.69H1367.19L1342.24 1378.45H1401.24V1424.69Z" fill="#E3CA7E"/>
<path d="M1367.19 1424.69H1272.13V1378.45H1342.24L1367.19 1424.69Z" fill="#EFA33F"/>
<path d="M1423.96 1351.55H1327.72L1302.77 1305.29H1423.96V1351.55Z" fill="#E3CA7E"/>
<path d="M1327.72 1351.55H1294.85V1305.29H1302.77L1327.72 1351.55Z" fill="#EFA33F"/>
<path d="M1246.85 1138.51H1212.79L1187.84 1092.27H1246.85V1138.51Z" fill="#E3CA7E"/>
<path d="M1212.79 1138.51H1117.75V1092.27H1187.84L1212.79 1138.51Z" fill="#EFA33F"/>
<path d="M1285.29 2105.63H1414.39V2083.19H1285.29V2105.63Z" fill="#91AE64"/>
<path d="M1285.29 2083.19H1414.39V2059.37H1285.29V2083.19Z" fill="#EFA33F"/>
<path d="M2001.93 1728.25H1872.84V1682.01H2001.93V1728.25Z" fill="#F7CC7F"/>
<path d="M2117.35 1553.74H1988.26V1507.48H2117.35V1553.74Z" fill="#F7CC7F"/>
<path d="M1896.01 1599.99H1766.91V1553.73H1896.01V1599.99Z" fill="#F7CC7F"/>
<path d="M1652.84 1553.05H1523.75V1506.8H1652.84V1553.05Z" fill="#F7CC7F"/>
<path d="M1954.45 1801.41H1825.35V1755.16H1954.45V1801.41Z" fill="#F7CC7F"/>
<path d="M2005.79 1874.56H1876.68V1828.31H2005.79V1874.56Z" fill="#F7CC7F"/>
<path d="M1930.05 2017.88H1800.95V1971.63H1930.05V2017.88Z" fill="#F7CC7F"/>
<path d="M2206.31 2022.19H2077.19V1975.93H2206.31V2022.19Z" fill="#F7CC7F"/>
<path d="M2426.4 1607.08H2344.38V1560.83H2426.4V1607.08Z" fill="#F7CC7F"/>
<path d="M2426.4 1705.13H2392.64V1658.88H2426.4V1705.13Z" fill="#F7CC7F"/>
<path d="M2426.4 2002.2H2361.84V1955.95H2426.4V2002.2Z" fill="#F7CC7F"/>
<path d="M2452.5 2082.51H748.566V2122.22H2452.5V2082.51Z" fill="#B75742"/>
<path d="M2426.4 2122.23H774.659V2219.33H2426.4V2122.23" fill="#F47458"/>
<path d="M1102.13 889.027L734.403 1530.61H775.411L1102.13 960.573L1419.59 1530.61H1469.87C1469.87 1530.61 1108.12 899.573 1102.13 889.027Z" fill="#F48C7F"/>
<path d="M2492.82 1530.61H1469.87L1102.14 889.02H2125.09L2492.82 1530.61Z" fill="#B75742"/>
<path d="M3408.29 1884.03L3431.6 1854.23C3448.47 1831.81 3445.03 1800.76 3423.93 1784.88C3370.72 1744.87 3293.15 1758.24 3250.65 1814.76L3219.57 1856.07C3205.96 1874.17 3184.53 1882.65 3164.5 1879.93C3146.32 1877.47 3127.72 1885.89 3116.15 1901.27L3099.76 1923.04C3082.04 1946.63 3075.9 1976.48 3082.11 2004.25C3085.73 2020.51 3082.26 2038.64 3071.06 2053.49L3047.87 2084.33C3022.23 2118.44 3027.46 2165.64 3059.56 2189.79L3077.87 2203.56C3109.96 2227.69 3156.77 2219.63 3182.41 2185.53C3209.54 2138.51 3241.02 2123.25 3266.42 2120.12C3303.79 2115.52 3338.56 2095.68 3361.93 2064.61L3365.22 2060.25C3389.89 2027.45 3398.73 1986.02 3390.62 1947.24C3387.07 1930.1 3389.78 1908.6 3408.29 1884.03" fill="#327765"/>
<path d="M2946.66 2211.45C2946.66 2211.45 3067.47 2053.22 3142.63 2027.17C3196 2008.67 3159.16 2087.08 3159.16 2087.08C3159.16 2087.08 3281.27 1953.16 3330.54 1966.39C3375.72 1978.53 3330.54 2069.55 3330.54 2069.55C3330.54 2069.55 3381.42 2019.14 3443.11 2019.14C3504.81 2019.14 3395.44 2207.85 3395.44 2207.85L2946.66 2211.45" fill="#50BFA5"/>
<path d="M3330.54 2210.55C3330.54 2210.55 3413.91 1975.45 3515.74 2000.88C3598.25 2021.49 3538.45 2147.33 3543.47 2142.31C3548.51 2137.28 3592.78 2062.17 3664.39 2062.17C3736 2062.17 3642.4 2163.53 3642.4 2163.53C3642.4 2163.53 3794.97 2115.88 3806.92 2165.92C3816.83 2207.44 3761.39 2210.55 3761.39 2210.55H3330.54" fill="#96D9C9"/>
<path d="M3149.63 1629.93C3150.34 1612.75 3147.82 1595.76 3140.17 1579.75C3133.56 1565.97 3117.25 1558.16 3102.38 1558.15C3055.16 1558.08 3049.16 1620.75 3019.09 1644.92C3009.92 1652.29 2999.64 1658.32 2990.95 1666.28C2958.86 1695.69 2973.33 1750.13 3002.79 1775.91C3023.25 1793.8 3055.38 1803.97 3080.58 1789.99C3093.73 1782.68 3103.72 1770.55 3110.85 1757.25C3120.94 1738.37 3127.44 1716.6 3134.64 1696.49C3142.29 1675.08 3148.68 1652.79 3149.63 1629.93" fill="#184655"/>
<path d="M2992.34 1543.74C2994.8 1542.57 2998.19 1554.78 3000.85 1555.17C3003.51 1555.56 3001.96 1539.18 3004.17 1538.36C3008.24 1536.82 3006.97 1556.18 3008.88 1555.6C3010.8 1555.02 3013.09 1535.12 3016.68 1536.86C3020.24 1538.61 3012.13 1557.25 3014.47 1557.53C3016.8 1557.82 3020.46 1539.52 3025.48 1539.3C3028.18 1539.2 3015.28 1569.8 3017.09 1573C3018.89 1576.18 3030.7 1567.89 3032.85 1570.37C3035 1572.84 3010.29 1583.64 3009.57 1585.57C3008.84 1587.5 2996.29 1629.49 2994.22 1643.76C2999.07 1644.94 3030.25 1656.48 3034.81 1657.49C3034.81 1657.49 3035.06 1674.94 3032.42 1687.21C3017.19 1682.94 2966.41 1667.83 2964.15 1663.96C2957.24 1652.18 2985.09 1592.68 2990.85 1582.41C2996.64 1572.13 2993.85 1566.9 2995.29 1560.21C2996.76 1553.53 2989.88 1544.9 2992.34 1543.74" fill="#F7A491"/>
<path d="M3053.11 2206.4C3057.02 2203.51 3060.19 2201.6 3072.75 2195.52C3073.55 2195.12 3076.52 2193.22 3077.61 2192.56C3080.33 2190.89 3083.06 2188.28 3085.43 2185.65C3087.66 2183.13 3088.74 2175.09 3089.24 2168.69C3087.96 2154.37 3067.21 1924.82 3062.84 1899.98C3058.33 1874.33 3065.21 1835.2 3065.21 1835.2L3081.22 1829.16L3111.61 1934.51L3109.2 2014.69C3109.2 2014.69 3116.37 2037.81 3117.27 2051.62C3118.17 2065.44 3106.94 2177.56 3106.94 2177.56C3106.94 2181.56 3107.1 2185.19 3107.54 2187.45C3108.36 2191.65 3112.96 2200.28 3110.85 2204.22C3108.72 2208.17 3106.33 2209.16 3106.33 2209.16L3051.72 2210.04C3048.74 2210.09 3050.7 2208.17 3053.11 2206.4" fill="#F7A491"/>
<path d="M3135.98 1826.97C3135.98 1826.97 3154.95 1855.59 3159.48 1879.27C3163.97 1902.94 3156.15 1975.71 3164.84 2006.73C3169.53 2023.53 3187.36 2049.47 3190.07 2071.17C3192.78 2092.88 3202.21 2155.52 3202.21 2155.52C3203.64 2162.11 3205.87 2170.24 3208.77 2174.01C3210.54 2176.33 3213.79 2179.25 3215.9 2183.44C3219.23 2189.96 3217.39 2199.65 3214.95 2204.99C3213.69 2207.73 3215.05 2207.72 3212.18 2208.6C3203.72 2211.23 3194.72 2206.81 3191.12 2198.69C3189.12 2194.16 3187.36 2188.11 3186.99 2180.48C3186.61 2172.4 3185.35 2165.99 3184.01 2161.24L3123.37 2012.53L3079.5 1884.19L3068.25 1818.09L3135.98 1826.97" fill="#F7A491"/>
<path d="M3189.47 2194.43C3202.61 2196.83 3211.34 2189.13 3215.87 2183.37C3219.2 2189.89 3220.84 2199.63 3218.38 2204.99C3216.22 2209.71 3209.91 2209.57 3204.93 2209.76C3199.67 2209.96 3195.62 2207.03 3193.01 2202.44C3191.79 2200.29 3190.53 2197.63 3189.47 2194.43" fill="#184655"/>
<path d="M3077.6 2192.56C3092.05 2196.28 3102.73 2193.75 3108.7 2191.33C3110.24 2195.71 3112.28 2201.2 3111.2 2204.36C3109.86 2208.24 3108 2209.12 3106.31 2209.16C3093.12 2209.51 3057.99 2209.97 3047.94 2210.11C3046.52 2210.13 3045.75 2208.48 3046.66 2207.4C3049.14 2204.41 3076.53 2193.21 3077.6 2192.56Z" fill="#184655"/>
<path d="M3123.69 2009.72C3122.55 2009.8 3121.42 2009.88 3120.28 2009.94H3120.08C3118.98 2010.03 3117.83 2010.08 3116.71 2010.14L3116.51 2010.16C3115.36 2010.21 3114.22 2010.27 3113.1 2010.32H3112.89C3111.75 2010.37 3110.58 2010.41 3109.42 2010.45C3096.48 2010.88 3080.49 2010.72 3070.23 2008.97C3065 1956.61 3063.04 1908.82 3061.12 1898.24C3056.9 1875.27 3062.65 1795.92 3062.65 1795.92L3135.43 1803.68C3135.43 1803.68 3143.04 1807.07 3162.17 1854.05C3175.46 1886.67 3158.15 1973.97 3167.17 2005C3167.17 2005 3147.06 2008.13 3123.69 2009.72" fill="#13375B"/>
<path d="M3030.83 1653.53C3030.83 1653.53 3080.99 1657.21 3096.55 1660.85C3112.53 1664.59 3115.69 1695.31 3105.81 1706.52C3095.89 1717.73 3017.42 1691.16 3017.42 1691.16L3030.83 1653.53" fill="#B75742"/>
<path d="M3120.77 1657C3120.77 1657 3146.83 1655.39 3157.16 1666.31C3167.48 1677.24 3134.27 1763.71 3132.4 1777.63C3130.52 1791.54 3135.41 1803.68 3135.41 1803.68C3135.41 1803.68 3079.1 1823.72 3061.59 1812.47C3061.59 1812.47 3059.96 1728.24 3061.83 1718.31C3063.7 1708.36 3080.69 1668.92 3084.44 1664.95C3088.18 1660.98 3120.77 1657 3120.77 1657" fill="#F47458"/>
<path d="M3112.09 1623.12C3112.09 1623.12 3112.21 1623.87 3112.45 1625.13C3113.62 1631.24 3118.1 1651.46 3121.12 1657.02C3124.78 1663.72 3108.59 1685.15 3093.04 1682.53C3088.41 1681.76 3096.96 1662.86 3096.53 1660.86C3095.75 1657.02 3094.68 1651.79 3093.6 1646.43C3092.98 1643.4 3092.37 1640.33 3091.77 1637.46C3090.12 1629.26 3088.75 1622.56 3088.75 1622.56L3112.09 1623.12" fill="#F7A491"/>
<path d="M3112.47 1625.13C3112.23 1623.87 3112.09 1623.12 3112.09 1623.12L3088.75 1622.56C3088.75 1622.56 3090.12 1629.25 3091.78 1637.45C3092.36 1640.32 3092.98 1643.36 3093.6 1646.37C3097.21 1645.85 3100.95 1644.16 3104.74 1640.95C3108.85 1637.44 3111.55 1633.24 3113.17 1628.75C3112.87 1627.32 3112.63 1626.08 3112.47 1625.13" fill="#F47458"/>
<path d="M3096.38 1571.6C3096.38 1571.6 3107.39 1570.36 3114.29 1579.03C3121.18 1587.68 3128.6 1614.48 3111.48 1629.04C3094.35 1643.6 3077.44 1627.12 3074.95 1609.64C3072.41 1592.16 3071.44 1570.96 3096.38 1571.6Z" fill="#F7A491"/>
<path d="M3069.88 1609.37C3071.92 1613.24 3075.33 1615.37 3077.53 1614.16C3079.71 1612.93 3079.83 1608.81 3077.79 1604.94C3075.75 1601.09 3072.32 1598.95 3070.12 1600.17C3067.94 1601.4 3067.82 1605.52 3069.88 1609.37" fill="#F7A491"/>
<path d="M3095.16 1568.74C3095.16 1568.74 3109.83 1594.2 3120.35 1595.39C3130.86 1596.56 3132.23 1610.09 3132.23 1610.09C3132.23 1610.09 3128.49 1578.91 3118.07 1572.9C3107.67 1566.88 3095.16 1568.74 3095.16 1568.74Z" fill="#184655"/>
<path d="M3117.6 1601.79C3116.75 1606.3 3118.46 1610.45 3121.44 1611.05C3124.42 1611.64 3127.52 1608.45 3128.39 1603.93C3129.23 1599.41 3127.52 1595.27 3124.54 1594.67C3121.56 1594.08 3118.46 1597.26 3117.6 1601.79" fill="#F7A491"/>
<path d="M3253.77 1932.81C3248.83 1927.27 3238.68 1917.69 3230.8 1911.99C3219.27 1903.61 3208.53 1899.41 3194.95 1904.04C3182.5 1908.56 3176.52 1915.84 3171.59 1920.39C3171.55 1920.44 3160.99 1931.81 3154.68 1943.05L3163.71 1946.95C3165.17 1942.01 3170.92 1930.71 3178.17 1922.28C3186.97 1911.95 3195.39 1909.01 3195.35 1909.04C3200.11 1907.07 3204.75 1906.85 3204.68 1906.85C3206.36 1906.76 3207.55 1906.85 3208.57 1906.95C3223.93 1908.71 3241.04 1929.2 3245.68 1938.41L3253.77 1932.81" fill="#B75742"/>
<path d="M3171.92 2016.99L3260.09 2006.85C3269.89 2005.73 3276.39 1996.35 3273.78 1987.09L3253.48 1922.53L3154.84 1933.87L3154.08 2001.84C3154.25 2011.04 3162.52 2018.07 3171.92 2016.99" fill="#F47458"/>
<path d="M3154.08 2001.84L3154.84 1933.87L3174.78 1931.57L3174.02 1999.55C3174.21 2008.75 3182.47 2015.77 3191.87 2014.69L3171.91 2016.99C3162.51 2018.07 3154.25 2011.04 3154.08 2001.84" fill="#B75742"/>
<path d="M3103.16 1613.56L3088.16 1615.71C3088.16 1615.71 3089.32 1621.36 3095.95 1620.6C3104.02 1619.68 3103.16 1613.56 3103.16 1613.56Z" fill="white"/>
<path d="M3214.21 1916.73L3212.19 1911.72L3208.68 1914.25L3206.28 1921.16L3207.97 1922.53C3207.97 1922.53 3212.7 1917.96 3214.21 1916.73" fill="#B75742"/>
<path d="M3197.07 1883.6C3197.15 1883.2 3180.73 1813.44 3174.07 1798.01C3167.43 1782.59 3141.62 1710.95 3141.62 1710.95L3167.82 1700.35C3167.82 1700.35 3192.95 1758.31 3202.78 1783.66C3212.6 1809 3212.04 1857.13 3212.5 1870.32C3212.5 1870.52 3213.93 1881.48 3213.93 1881.67C3214.28 1883.12 3214.59 1884.35 3214.73 1884.58C3215.13 1885.23 3216.26 1889.64 3216.33 1890.03C3216.37 1890.4 3217.36 1891.91 3217.75 1892.55C3218.15 1893.19 3219.06 1902.15 3219.24 1903.6C3219.45 1905.05 3218.81 1908.32 3218.81 1908.32L3219.16 1914.32C3219.43 1918.73 3214.84 1917.57 3214.84 1917.57C3214.96 1919.65 3214.22 1920.73 3213.06 1921.13C3211.88 1921.52 3210.49 1921.19 3210.26 1921.28C3210.06 1921.36 3209.98 1922.01 3209.98 1922.01C3210.08 1923.33 3208.59 1924.36 3207.64 1924.55C3206.67 1924.73 3204.95 1924.09 3204.45 1923.52C3203.98 1922.95 3203.65 1923.03 3203.65 1923.03C3202.65 1923.87 3198.95 1923.83 3198.08 1922.63C3197.21 1921.43 3196.43 1915.08 3196.03 1914.52C3195.64 1913.95 3194.81 1912.97 3194.69 1912.05C3194.57 1911.15 3191.5 1904.65 3191.34 1903.36C3191.15 1902.05 3193.06 1897.69 3193.47 1895.07C3193.88 1892.45 3196.45 1888.37 3197.07 1887.21C3197.3 1886.75 3197.23 1885.25 3197.07 1883.6" fill="#F7A491"/>
<path d="M3156.03 1756.8C3156.03 1756.8 3126.58 1712.72 3123.92 1696.54C3121.29 1680.34 3135.85 1660.3 3150.74 1661.84C3165.61 1663.4 3191.04 1737.15 3191.04 1737.15L3156.03 1756.8" fill="#F47458"/>
<path d="M276.599 2215.56H221.907V1865.75L249.253 1837.07L276.599 1865.75V2215.56" fill="#FAE0B2"/>
<path d="M439.808 2215.56H385.117V1865.75L412.463 1837.07L439.808 1865.75V2215.56Z" fill="#FAE0B2"/>
<path d="M358.204 2215.56H303.512V1865.75L330.859 1837.07L358.204 1865.75V2215.56Z" fill="#FAE0B2"/>
<path d="M193.24 2215.56H138.548V1865.75L165.893 1837.07L193.24 1865.75V2215.56Z" fill="#FAE0B2"/>
<path d="M111.635 2215.56H56.9426V1865.75L84.2893 1837.07L111.635 1865.75V2215.56" fill="#FAE0B2"/>
<path d="M497.223 1972.83H87.1053V1953.56H497.223V1972.83Z" fill="#FAE0B2"/>
<path d="M525.629 2215.56H470.937V1865.75L498.283 1837.07L525.629 1865.75V2215.56" fill="#FAE0B2"/>
<path d="M688.839 2215.56H634.148V1865.75L661.493 1837.07L688.839 1865.75V2215.56Z" fill="#FAE0B2"/>
<path d="M607.235 2215.56H552.543V1865.75L579.888 1837.07L607.235 1865.75V2215.56" fill="#FAE0B2"/>
<path d="M746.253 1972.83H490.697V1953.56H746.253V1972.83Z" fill="#FAE0B2"/>
<path d="M774.66 2215.56H719.968V1865.75L747.313 1837.07L774.66 1865.75V2215.56" fill="#FAE0B2"/>
<path d="M565.073 2173.28C565.535 2170.55 565.776 2167.75 565.776 2164.89C565.776 2133.16 536.025 2107.43 499.327 2107.43C462.629 2107.43 432.879 2133.16 432.879 2164.89C432.879 2167.75 433.119 2170.55 433.581 2173.28H565.073" fill="#3C8F7C"/>
<path d="M640.275 2159.15C640.736 2155.29 640.976 2151.35 640.976 2147.33C640.976 2102.57 611.227 2066.28 574.528 2066.28C537.831 2066.28 508.08 2102.57 508.08 2147.33C508.08 2151.35 508.32 2155.29 508.783 2159.15H640.275" fill="#50BFA5"/>
<path d="M615.945 2208.83C615.483 2206.08 615.243 2203.29 615.243 2200.44C615.243 2168.69 644.993 2142.96 681.692 2142.96C718.389 2142.96 748.139 2168.69 748.139 2200.44C748.139 2203.29 747.899 2206.08 747.437 2208.83H615.945" fill="#50BFA5"/>
<path d="M509.6 2208.83C509.015 2204.96 508.709 2201.01 508.709 2197C508.709 2152.24 546.423 2115.95 592.945 2115.95C639.468 2115.95 677.181 2152.24 677.181 2197C677.181 2201.01 676.877 2204.96 676.292 2208.83H509.6Z" fill="#3C8F7C"/>
<path d="M574.277 2115.95C551.027 2115.95 530.253 2127.47 516.545 2145.52C509.564 2143.85 502.147 2142.96 494.459 2142.96C453.177 2142.96 419.713 2168.69 419.713 2200.44C419.713 2203.29 419.984 2206.08 420.503 2208.83H648.232C648.752 2204.96 649.023 2201.01 649.023 2197C649.023 2152.24 615.557 2115.95 574.277 2115.95" fill="#50BFA5"/>
<path d="M286.229 2038.09C266.669 2007.53 263.02 1970.63 263.403 1945.05C263.817 1917.28 268.943 1896.49 268.993 1896.29L267.579 1895.79C267.527 1896 262.361 1916.93 261.939 1944.89C261.548 1970.72 265.24 2008 285.043 2038.95L286.229 2038.09Z" fill="#3C8F7C"/>
<path d="M273.809 1891.21C273.329 1897.49 270.548 1902.76 266.543 1906C263.12 1901.63 261.199 1895.63 261.68 1889.35C262.161 1883.07 264.943 1877.79 268.948 1874.56C272.371 1878.93 274.291 1884.92 273.809 1891.21" fill="#3C8F7C"/>
<path d="M260.589 1905.71C263.908 1911.15 264.936 1917.33 263.873 1922.72C258.792 1921.51 253.875 1917.95 250.556 1912.51C247.239 1907.07 246.209 1900.88 247.272 1895.51C252.353 1896.72 257.272 1900.28 260.589 1905.71Z" fill="#3C8F7C"/>
<path d="M253.1 1922.77C258.252 1926.13 261.745 1931.31 263.088 1936.76C258.192 1938.16 252.449 1937.32 247.296 1933.97C242.144 1930.61 238.651 1925.44 237.308 1919.99C242.205 1918.59 247.947 1919.43 253.1 1922.77Z" fill="#3C8F7C"/>
<path d="M255.409 1946.55C259.489 1949.21 262.017 1953.77 262.707 1958.8C258.456 1960.61 253.673 1960.39 249.593 1957.73C245.515 1955.07 242.987 1950.51 242.296 1945.48C246.548 1943.67 251.331 1943.88 255.409 1946.55Z" fill="#3C8F7C"/>
<path d="M272.267 1918.39C276.853 1915.93 281.985 1915.8 286.38 1917.57C285.219 1922.31 282.133 1926.56 277.547 1929.01C272.961 1931.47 267.828 1931.61 263.435 1929.84C264.595 1925.09 267.681 1920.84 272.267 1918.39" fill="#3C8F7C"/>
<path d="M271.759 1934.8C276.345 1932.35 281.477 1932.21 285.872 1933.99C284.711 1938.72 281.625 1942.99 277.039 1945.44C272.453 1947.88 267.32 1948.03 262.927 1946.25C264.087 1941.51 267.173 1937.25 271.759 1934.8" fill="#3C8F7C"/>
<path d="M258.361 1972.67C260.787 1973.23 262.799 1974.87 264.012 1977C262.289 1978.44 259.955 1979.05 257.531 1978.49C255.105 1977.92 253.093 1976.28 251.88 1974.16C253.603 1972.72 255.937 1972.09 258.361 1972.67Z" fill="#3C8F7C"/>
<path d="M278.165 2059.68C233.4 2048.97 199.257 2015.87 178.5 1989.97C155.965 1961.87 143.892 1935.96 143.772 1935.69L141.949 1936.63C142.069 1936.89 154.227 1963 176.908 1991.29C197.867 2017.44 232.361 2050.89 277.683 2061.73L278.165 2059.68Z" fill="#3C8F7C"/>
<path d="M144.377 1925.76C149.092 1932.52 150.673 1940.59 149.353 1947.85C142.324 1946.96 135.456 1942.92 130.743 1936.17C126.028 1929.41 124.447 1921.35 125.768 1914.08C132.797 1914.97 139.664 1919.01 144.377 1925.76" fill="#3C8F7C"/>
<path d="M143.183 1953.59C150.985 1955.67 157.128 1960.79 160.509 1967.23C154.441 1971.16 146.597 1972.59 138.795 1970.51C130.992 1968.44 124.849 1963.31 121.468 1956.88C127.536 1952.95 135.379 1951.52 143.183 1953.59" fill="#3C8F7C"/>
<path d="M149.82 1978.19C157.731 1976.32 165.491 1977.95 171.339 1982.03C167.608 1988.37 161.189 1993.35 153.279 1995.2C145.368 1997.07 137.609 1995.44 131.76 1991.36C135.491 1985.01 141.909 1980.04 149.82 1978.19Z" fill="#3C8F7C"/>
<path d="M167.655 2000.55C175.565 1998.68 183.325 2000.31 189.173 2004.39C185.443 2010.73 179.024 2015.71 171.113 2017.56C163.203 2019.43 155.444 2017.8 149.595 2013.72C153.325 2007.37 159.744 2002.41 167.655 2000.55Z" fill="#3C8F7C"/>
<path d="M162.321 1963.37C161.923 1955.76 164.424 1948.6 168.697 1943.44C173.455 1947.51 176.671 1953.97 177.069 1961.57C177.468 1969.19 174.967 1976.35 170.693 1981.51C165.936 1977.45 162.721 1970.99 162.321 1963.37Z" fill="#3C8F7C"/>
<path d="M180.921 1986.51C180.407 1978.91 182.8 1971.69 186.995 1966.45C191.812 1970.43 195.125 1976.84 195.639 1984.44C196.153 1992.04 193.76 1999.24 189.565 2004.48C184.748 2000.51 181.435 1994.11 180.921 1986.51Z" fill="#3C8F7C"/>
<path d="M196.295 2022.6C199.181 2020.72 202.541 2020.32 205.511 2021.21C204.984 2024.39 203.171 2027.37 200.284 2029.25C197.397 2031.15 194.037 2031.55 191.068 2030.65C191.595 2027.47 193.408 2024.49 196.295 2022.6Z" fill="#3C8F7C"/>
<path d="M396.659 2122.92L398.593 2122.79C395.807 2071.59 414.601 2023.4 430.86 1992C448.503 1957.93 467.052 1935.71 467.237 1935.48L465.817 1934.03C465.631 1934.24 446.953 1956.61 429.2 1990.89C412.8 2022.56 393.841 2071.16 396.659 2122.92" fill="#3C8F7C"/>
<path d="M475.64 1932.55C471.221 1939.99 464.876 1944.61 458.433 1945.88C457.344 1938.13 458.921 1929.41 463.341 1921.96C467.761 1914.52 474.107 1909.89 480.549 1908.63C481.639 1916.39 480.06 1925.11 475.64 1932.55" fill="#3C8F7C"/>
<path d="M452.008 1941.47C452.324 1950.45 449.635 1958.81 445.132 1964.73C440.247 1959.77 436.992 1952.01 436.676 1943.03C436.361 1934.03 439.049 1925.67 443.552 1919.75C448.437 1924.72 451.692 1932.48 452.008 1941.47Z" fill="#3C8F7C"/>
<path d="M433.144 1957.47C436.783 1965.13 437.455 1973.92 435.569 1981.59C429.276 1979.96 423.425 1975.01 419.787 1967.35C416.148 1959.68 415.476 1950.89 417.361 1943.23C423.655 1944.84 429.504 1949.8 433.144 1957.47Z" fill="#3C8F7C"/>
<path d="M420.184 1996.8C421.927 1999.88 422.457 2003.55 421.887 2006.81C419.203 2006.36 416.611 2004.48 414.868 2001.4C413.127 1998.32 412.595 1994.65 413.167 1991.39C415.849 1991.84 418.441 1993.71 420.184 1996.8Z" fill="#3C8F7C"/>
<path d="M414.592 2010.92C416.335 2014 416.865 2017.67 416.295 2020.93C413.611 2020.48 411.02 2018.6 409.277 2015.52C407.535 2012.44 407.003 2008.77 407.575 2005.49C410.257 2005.96 412.849 2007.83 414.592 2010.92Z" fill="#3C8F7C"/>
<path d="M457.116 1965.12C463.719 1965.21 469.495 1968.55 473.272 1973.73C469.053 1978.81 462.996 1981.97 456.393 1981.87C449.792 1981.77 444.015 1978.44 440.239 1973.25C444.457 1968.17 450.513 1965.01 457.116 1965.12Z" fill="#3C8F7C"/>
<path d="M446.399 1985.08C453 1985.17 458.777 1988.51 462.555 1993.69C458.335 1998.77 452.277 2001.93 445.676 2001.83C439.073 2001.73 433.297 1998.4 429.52 1993.21C433.739 1988.13 439.796 1984.97 446.399 1985.08Z" fill="#3C8F7C"/>
<path d="M428.66 2012.28C432.957 2012.33 436.717 2014.51 439.175 2017.89C436.429 2021.19 432.487 2023.24 428.189 2023.19C423.892 2023.12 420.132 2020.95 417.673 2017.57C420.42 2014.27 424.363 2012.21 428.66 2012.28" fill="#3C8F7C"/>
<path d="M229.731 2206.87C229.731 2198.35 281.201 2208.4 285.484 2196.79C289.765 2185.17 241.4 2184.51 241.4 2168.8C241.4 2153.09 266.048 2164.11 280.5 2164.11C294.953 2164.11 251.967 2157.39 251.967 2151.83C251.967 2146.27 267.048 2149.17 267.048 2143.28C267.048 2137.37 187.845 2132.92 197.115 2118.47C206.384 2104.01 248.965 2122.68 260.656 2115.2C272.348 2107.72 198.195 2099.57 196.36 2088.45C194.525 2077.33 251 2097.97 258.996 2089.99C266.993 2081.99 169.696 2053.25 173.773 2032.12C177.849 2011 247.519 2059.17 264.936 2053.99C282.353 2048.8 177.108 1974.65 201.567 1945.76C226.025 1916.87 272.719 2041.39 288.653 2036.95C304.588 2032.49 268.697 1958.27 284.975 1945.35C301.253 1932.44 347.976 2049.87 350.927 2073.97C353.876 2098.09 359.805 2022.11 385.376 2013.21C410.945 2004.33 386.117 2060.29 390.564 2077.33C395.011 2094.39 415.761 2033.61 443.741 2038.05C471.723 2042.51 393.159 2098.09 400.941 2114.39C408.723 2130.69 469.389 2059.96 488.399 2078.97C507.408 2097.97 415.327 2150.73 420.363 2165.17C425.399 2179.61 480.643 2154.87 496.551 2170.77C512.459 2186.68 437.204 2196.79 427.224 2196.79C417.247 2196.79 379.111 2209.33 416.356 2206.87C453.6 2204.4 229.731 2215.39 229.731 2206.87" fill="#3C8F7C"/>
<path d="M376.447 2216.71C376.447 2216.71 438.429 2220.04 456.475 2208.67C474.521 2197.31 460.279 2188.47 460.279 2188.47C460.279 2188.47 517.595 2187.23 517.451 2173.64C517.307 2160.07 503.415 2160.84 503.415 2160.84C503.415 2160.84 532.344 2141.19 526.948 2128.93C518.657 2110.09 471.536 2142.88 471.536 2142.88C471.536 2142.88 486.983 2124.55 474.501 2120.25C440.239 2108.49 376.447 2216.71 376.447 2216.71" fill="#50BFA5"/>
<path d="M526.948 2128.93C532.344 2141.19 503.415 2160.84 503.415 2160.84C503.415 2160.84 524.295 2160.57 520.905 2173.77C517.528 2186.93 465.032 2191.37 465.032 2191.37C465.032 2191.37 483.36 2194.96 465.313 2206.32C447.268 2217.68 376.447 2216.71 376.447 2216.71L526.948 2128.93Z" fill="#96D9C9"/>
<path d="M135.781 2159.73C136.169 2155.95 136.372 2152.08 136.372 2148.13C136.372 2104.17 111.365 2068.53 80.52 2068.53C49.672 2068.53 24.6666 2104.17 24.6666 2148.13C24.6666 2152.08 24.868 2155.95 25.2573 2159.73H135.781Z" fill="#3C8F7C"/>
<path d="M198.992 2140.17C199.38 2134.84 199.583 2129.37 199.583 2123.81C199.583 2061.81 174.576 2011.56 143.729 2011.56C112.883 2011.56 87.8773 2061.81 87.8773 2123.81C87.8773 2129.37 88.0787 2134.84 88.468 2140.17H198.992Z" fill="#50BFA5"/>
<path d="M178.543 2208.96C178.155 2205.17 177.952 2201.31 177.952 2197.36C177.952 2153.4 202.959 2117.76 233.805 2117.76C264.651 2117.76 289.657 2153.4 289.657 2197.36C289.657 2201.31 289.455 2205.17 289.067 2208.96H178.543" fill="#50BFA5"/>
<path d="M89.1546 2208.96C88.6613 2203.63 88.4053 2198.16 88.4053 2192.6C88.4053 2130.6 120.107 2080.35 159.211 2080.35C198.313 2080.35 230.015 2130.6 230.015 2192.6C230.015 2198.16 229.757 2203.63 229.267 2208.96H89.1546Z" fill="#3C8F7C"/>
<path d="M143.519 2080.35C123.975 2080.35 106.515 2096.29 94.992 2121.29C89.124 2119 82.8893 2117.76 76.428 2117.76C41.7293 2117.76 13.6 2153.4 13.6 2197.36C13.6 2201.31 13.828 2205.17 14.264 2208.96H205.681C206.117 2203.63 206.345 2198.16 206.345 2192.6C206.345 2130.6 178.217 2080.35 143.519 2080.35Z" fill="#50BFA5"/>
<path d="M3838.37 2222.97H0.000244141V2208.88H3838.37V2222.97Z" fill="#B75742"/>
<path d="M2920.96 2208.09H2932.96V2041.47H2920.96V2208.09Z" fill="#13375B"/>
<path d="M2585.53 2208.09H2597.53V2041.47H2585.53V2208.09" fill="#13375B"/>
<path d="M2573.18 1861.92H2955.26V2057.29H2573.18L2475.48 1959.6L2573.18 1861.92Z" fill="#F3FAFF"/>
<path d="M2585.59 1877.75H2932.96V2041.47H2585.59L2503.72 1959.6L2585.59 1877.75Z" fill="#F47458"/>
<path d="M2610.35 1976.64L2625.24 1970.01C2627.55 1974.67 2630.11 1978.05 2632.95 1980.19C2635.78 1982.32 2639.14 1983.37 2643.01 1983.37C2647.37 1983.37 2650.84 1982.39 2653.39 1980.39C2655.92 1978.4 2657.2 1975.71 2657.2 1972.31C2657.2 1969.61 2656.25 1967.35 2654.38 1965.53C2652.5 1963.72 2649.11 1961.91 2644.24 1960.11C2643.56 1959.84 2642.61 1959.49 2641.36 1959.05C2632.82 1955.93 2626.85 1953.28 2623.49 1951.09C2620.16 1948.98 2617.62 1946.28 2615.87 1943C2614.12 1939.72 2613.23 1936 2613.23 1931.87C2613.23 1924.83 2615.87 1919.12 2621.12 1914.72C2626.37 1910.32 2633.23 1908.13 2641.71 1908.13C2649.14 1908.13 2655.33 1909.73 2660.27 1912.93C2665.21 1916.13 2668.83 1920.88 2671.14 1927.17L2656.25 1932.63C2654.41 1928.72 2652.24 1925.88 2649.75 1924.09C2647.25 1922.32 2644.15 1921.43 2640.49 1921.43C2636.92 1921.43 2634.13 1922.27 2632.07 1923.92C2630.03 1925.59 2628.99 1927.84 2628.99 1930.69C2628.99 1935.11 2634.01 1939.29 2644.06 1943.23C2647.15 1944.44 2649.58 1945.43 2651.33 1946.16C2659.73 1949.72 2665.43 1953.35 2668.47 1957.07C2671.5 1960.77 2673.01 1965.63 2673.01 1971.6C2673.01 1979.65 2670.37 1985.97 2665.1 1990.59C2659.82 1995.2 2652.57 1997.51 2643.35 1997.51C2635.35 1997.51 2628.55 1995.75 2622.99 1992.23C2617.43 1988.72 2613.21 1983.52 2610.35 1976.64" fill="white"/>
<path d="M2703.03 1963.33H2725.24L2714.11 1924.31L2703.03 1963.33ZM2677.96 1996.33L2704.26 1909.07H2724.78L2751.03 1996.33H2734.61L2729.23 1977.23H2699.1L2693.54 1996.33H2677.96" fill="white"/>
<path d="M2761.16 1996.33V1909.07H2777.86V1981.44H2814.66V1996.33H2761.16Z" fill="white"/>
<path d="M2827.37 1996.33V1909.07H2884.07V1923.25H2843.74V1943.88H2873.09V1957.83H2843.74V1981.44H2885.82V1996.33H2827.37Z" fill="white"/>
<path d="M1553.45 436.667H941.343C941.053 433.667 940.893 430.613 940.893 427.533C940.893 375.56 983.003 333.413 1034.95 333.413C1051.55 333.413 1067.13 337.733 1080.67 345.293C1099.79 292.6 1150.27 254.96 1209.53 254.96C1259.33 254.96 1302.93 281.56 1326.93 321.32C1337.39 318.067 1348.51 316.307 1360.03 316.307C1404.6 316.307 1443.05 342.573 1460.76 380.48C1466.85 378.893 1473.24 378.04 1479.84 378.04C1515.72 378.04 1545.75 403.093 1553.45 436.667" fill="#FBFEFE"/>
<path d="M3036.86 649.995H2612.52C2617.88 626.72 2638.68 609.357 2663.57 609.357C2668.15 609.357 2672.57 609.944 2676.79 611.044C2689.08 584.768 2715.71 566.56 2746.62 566.56C2754.61 566.56 2762.32 567.777 2769.55 570.035C2786.2 542.469 2816.41 524.036 2850.97 524.036C2892.03 524.036 2927.02 550.127 2940.28 586.652C2949.65 581.416 2960.45 578.422 2971.98 578.422C3007.98 578.422 3037.17 607.632 3037.17 643.663C3037.17 645.8 3037.07 647.911 3036.86 649.995" fill="#FBFEFE"/>
<path d="M2169.72 707.338H1622.24C1629.14 677.307 1655.99 654.898 1688.09 654.898C1693.99 654.898 1699.7 655.667 1705.14 657.078C1720.98 623.172 1755.37 599.68 1795.23 599.68C1805.55 599.68 1815.49 601.261 1824.84 604.168C1846.3 568.609 1885.31 544.818 1929.86 544.818C1982.85 544.818 2028 578.482 2045.11 625.608C2057.22 618.855 2071.15 614.995 2086 614.995C2132.45 614.995 2170.12 652.676 2170.12 699.161C2170.12 701.925 2169.98 704.646 2169.72 707.338" fill="#FBFEFE"/>
</svg>
