<svg width="3404" height="2250" viewBox="0 0 3404 2250" fill="none" xmlns="http://www.w3.org/2000/svg">
<path d="M3387.22 2220.13H16.109C7.27327 2220.13 0.0410156 2225.92 0.0410156 2232.99V2236.44C0.0410156 2243.51 7.27327 2249.28 16.109 2249.28H3387.22C3396.06 2249.28 3403.29 2243.51 3403.29 2236.44V2232.99C3403.29 2225.92 3396.06 2220.13 3387.22 2220.13Z" fill="#575BA5"/>
<path d="M1261.99 991.333H750.053V251.4H1261.99V991.333Z" fill="#CFD4EC"/>
<path d="M796.733 813.187H1215.31C1221.87 813.187 1227.24 807.813 1227.24 801.253C1227.24 794.693 1221.87 789.333 1215.31 789.333H796.733C790.175 789.333 784.808 794.693 784.808 801.253C784.808 807.813 790.175 813.187 796.733 813.187Z" fill="#F0F3F9"/>
<path d="M1215.31 844.187H796.733C790.175 844.187 784.808 849.56 784.808 856.12C784.808 862.68 790.175 868.04 796.733 868.04H1215.31C1221.87 868.04 1227.24 862.68 1227.24 856.12C1227.24 849.56 1221.87 844.187 1215.31 844.187Z" fill="#F0F3F9"/>
<path d="M1215.31 899.04H796.733C790.175 899.04 784.808 904.413 784.808 910.973C784.808 917.533 790.175 922.893 796.733 922.893H1215.31C1221.87 922.893 1227.24 917.533 1227.24 910.973C1227.24 904.413 1221.87 899.04 1215.31 899.04Z" fill="#F0F3F9"/>
<path d="M1161.25 717.04L1140.59 716.88L1134.36 697.187L1127.83 716.787L1107.17 716.627L1123.79 728.893L1117.26 748.493L1134.06 736.48L1150.68 748.747L1144.45 729.053L1161.25 717.04" fill="#ECD165"/>
<path d="M1076.5 716.4L1070.27 696.707L1063.73 716.307L1043.08 716.147L1059.7 728.413L1053.17 748.013L1069.97 736L1086.59 748.267L1080.35 728.573L1097.15 716.56L1076.5 716.4" fill="#ECD165"/>
<path d="M1012.41 715.92L1006.17 696.227L999.64 715.813L978.985 715.667L995.604 727.933L989.073 747.52L1005.87 735.507L1022.49 747.773L1016.26 728.08L1033.06 716.067L1012.41 715.92" fill="#ECD165"/>
<path d="M948.311 715.427L942.077 695.747L935.547 715.333L914.892 715.187L931.509 727.453L924.979 747.04L941.78 735.027L958.399 747.293L952.164 727.6L968.965 715.587L948.311 715.427" fill="#ECD165"/>
<path d="M884.217 714.947L877.983 695.253L871.452 714.853L850.797 714.693L867.416 726.96L860.885 746.56L877.687 734.547L894.305 746.813L888.071 727.12L904.872 715.107L884.217 714.947" fill="#ECD165"/>
<path d="M1178.08 491.613C1178.08 586.64 1101.05 663.667 1006.02 663.667C910.999 663.667 833.965 586.64 833.965 491.613C833.965 396.587 910.999 319.56 1006.02 319.56C1101.05 319.56 1178.08 396.587 1178.08 491.613Z" fill="#F0F3F9"/>
<path d="M993.625 364.413C993.625 364.413 989.663 356.293 969.849 358.52C950.036 360.747 944.449 378.547 943.535 390.413C942.62 402.28 931.227 540.213 908.132 560.587L981.921 549.467L993.625 364.413Z" fill="#2F2C60"/>
<path d="M999.348 365.84C999.348 365.84 978.213 358.707 967.091 369.28C955.968 379.84 962.269 393.827 962.269 393.827L999.348 365.84Z" fill="#575BA3"/>
<path d="M1066.09 407.467C1066.09 407.467 1065.69 360.867 990.701 366.24C977.956 367.147 966.393 374.44 960.573 385.813C952.137 402.307 948.459 431.32 975.715 477.853L1066.09 407.467" fill="#373484"/>
<path d="M1051 547.827C1050.43 546.48 1047.73 544.173 1046.25 543.88L1046.17 543.854C1045.28 543.68 1044.4 543.507 1043.52 543.347C1042.12 543.08 1040.74 542.84 1039.36 542.627C1032.77 519.48 1036.73 496.44 1036.73 496.44L975.715 477.854C980.531 517.894 975.128 535.774 972.463 541.787C971.321 541.947 970.196 542.094 969.091 542.267C939.289 546.694 1075.29 605.547 1051 547.827" fill="#CD8085"/>
<path d="M1048.6 511.947C1048.6 511.947 974.173 515.347 972.769 468.973C971.364 422.587 960.812 391.787 1008.27 387.653C1055.74 383.52 1065.51 400.947 1069.74 416.307C1073.98 431.68 1067.93 509.867 1048.6 511.947" fill="#DCABB0"/>
<path d="M1102.65 633.987C1092.92 640.613 1082.47 646.267 1071.44 650.8C1071.03 650.96 1070.62 651.133 1070.22 651.293L1069.85 651.427C1068.25 652.08 1066.64 652.693 1065.02 653.28C1054.09 657.28 1042.65 660.187 1030.82 661.893C1022.72 663.067 1014.44 663.667 1006.02 663.667C968.833 663.667 934.405 651.88 906.268 631.813C905.385 631.187 904.515 630.547 903.644 629.907V629.893C902.541 629.093 901.451 628.267 900.371 627.413C896.101 624.093 891.993 620.573 888.059 616.867C895.279 587.507 901.283 564.88 904.533 561.64C906.185 559.987 908.492 558.44 911.277 557H911.283C929.808 547.36 968.996 542.147 968.996 542.147L969.091 542.267C969.568 542.827 970.265 543.507 971.153 544.28C972.979 545.867 975.625 547.84 978.959 549.907C989.692 556.6 1007.5 564.427 1027.53 564.293C1038.4 564.227 1043.43 561.347 1045.43 557.747C1048.7 551.88 1043.97 544.067 1043.52 543.347L1043.49 543.293C1044.34 543.413 1045.28 543.6 1046.17 543.853C1046.34 543.893 1046.5 543.947 1046.67 544C1047.97 544.4 1049.24 544.8 1050.49 545.187C1101.12 561.2 1101.98 567.56 1101.98 567.56C1110.85 577.267 1117.88 595.813 1124.09 616.76C1120.17 620.453 1116.09 623.973 1111.84 627.293C1108.85 629.627 1105.78 631.867 1102.65 633.987" fill="#DCE1F1"/>
<path d="M1082.4 418.213C1079.43 394.12 1055.33 378.92 1034.94 378.92C1014.55 378.92 995 381 995 381C949.044 401.547 973.133 473.333 973.133 473.333C973.133 473.333 999.889 455.293 1003.23 433.053C1005.33 419.053 1027.72 411.533 1040.75 406.133C1043.62 407.92 1073.49 427.12 1070.11 451.587C1070.11 451.587 1085.37 442.32 1082.4 418.213Z" fill="#373484"/>
<path d="M2789.93 991.324H2278V251.399H2789.93V991.324Z" fill="#CFD4EC"/>
<path d="M2324.66 813.186H2743.24C2749.8 813.186 2755.16 807.819 2755.16 801.26C2755.16 794.702 2749.8 789.336 2743.24 789.336H2324.66C2318.1 789.336 2312.73 794.702 2312.73 801.26C2312.73 807.819 2318.1 813.186 2324.66 813.186Z" fill="#F0F3F9"/>
<path d="M2743.24 844.192H2324.66C2318.1 844.192 2312.73 849.557 2312.73 856.116C2312.73 862.677 2318.1 868.042 2324.66 868.042H2743.24C2749.8 868.042 2755.16 862.677 2755.16 856.116C2755.16 849.557 2749.8 844.192 2743.24 844.192Z" fill="#F0F3F9"/>
<path d="M2743.24 899.048H2324.66C2318.1 899.048 2312.73 904.415 2312.73 910.974C2312.73 917.531 2318.1 922.898 2324.66 922.898H2743.24C2749.8 922.898 2755.16 917.531 2755.16 910.974C2755.16 904.415 2749.8 899.048 2743.24 899.048Z" fill="#F0F3F9"/>
<path d="M2662.3 697.19L2655.76 716.786L2635.1 716.63L2651.72 728.896L2645.19 748.492L2661.98 736.476L2678.61 748.744L2672.38 729.052L2689.17 717.038L2668.51 716.882L2662.3 697.19Z" fill="#ECD165"/>
<path d="M2598.19 696.707L2591.67 716.304L2571.01 716.145L2587.63 728.414L2581.09 748.008L2597.9 735.994L2614.52 748.26L2608.29 728.569L2625.08 716.554L2604.42 716.398L2598.19 696.707" fill="#ECD165"/>
<path d="M2534.1 696.223L2527.58 715.818L2506.92 715.662L2523.53 727.929L2517.01 747.525L2533.8 735.51L2550.44 747.776L2544.18 728.083L2560.99 716.071L2540.34 715.915L2534.1 696.223Z" fill="#ECD165"/>
<path d="M2470 695.731L2463.49 715.328L2442.83 715.181L2459.45 727.445L2452.9 747.041L2469.71 735.023L2486.33 747.292L2480.09 727.592L2496.9 715.589L2476.24 715.426L2470 695.731" fill="#ECD165"/>
<path d="M2405.92 695.252L2399.39 714.855L2378.73 714.696L2395.35 726.968L2388.82 746.555L2405.62 734.538L2422.24 746.81L2416.01 727.111L2432.81 715.11L2412.15 714.951L2405.92 695.252" fill="#ECD165"/>
<path d="M2705.99 491.625C2705.99 586.65 2628.97 663.675 2533.95 663.675C2438.92 663.675 2361.88 586.65 2361.88 491.625C2361.88 396.6 2438.92 319.559 2533.95 319.559C2628.97 319.559 2705.99 396.6 2705.99 491.625Z" fill="#F0F3F9"/>
<path d="M2508.76 533.666C2517.57 510.197 2515.68 495.624 2515.68 495.624L2568.6 459.267C2573.18 504.183 2581.14 516.245 2580.72 533.952C2580.72 534.222 2552.48 552.686 2532.33 552.569C2517.22 552.467 2508.68 533.868 2508.76 533.666Z" fill="#945C2E"/>
<path d="M2692.89 557.61C2683.53 580.158 2669.5 600.268 2652.04 616.749C2648.11 620.449 2644.03 623.966 2639.76 627.283C2636.8 629.626 2633.72 631.861 2630.59 633.99C2620.86 640.607 2610.41 646.258 2599.37 650.79C2598.97 650.96 2598.56 651.128 2598.16 651.288C2598.04 651.341 2597.91 651.384 2597.79 651.428C2596.18 652.077 2594.56 652.689 2592.95 653.274C2582.03 657.274 2570.6 660.184 2558.76 661.887C2550.66 663.058 2542.39 663.661 2533.95 663.661C2496.77 663.661 2462.35 651.873 2434.21 631.807C2433.33 631.188 2432.47 630.548 2431.58 629.901V629.892C2430.47 629.093 2429.39 628.26 2428.3 627.408C2424.04 624.08 2419.94 620.572 2415.99 616.855C2409.26 610.508 2403.02 603.6 2397.37 596.236C2402.81 586.663 2408.24 577.756 2413.5 569.989C2420.88 559.118 2462.17 543.566 2509.53 531.206L2509.62 531.399C2513.33 540.954 2521.12 547.143 2534.27 547.143C2553.41 547.143 2577.29 533.993 2578.75 516.46C2578.87 516.478 2654.51 530.715 2670.17 536.255C2678.81 539.306 2686.33 546.968 2692.89 557.61" fill="#D1872B"/>
<path d="M2503.16 497.582C2503.16 497.582 2567.57 500.529 2568.78 460.393C2570 420.258 2579.14 393.608 2538.06 390.022C2497 386.453 2488.53 401.521 2484.88 414.821C2481.21 428.12 2486.44 495.781 2503.16 497.582Z" fill="#A36D3C"/>
<path d="M2568.69 463.162C2568.69 463.162 2563.62 405.751 2505.22 410.476C2463.13 413.87 2475.08 370.616 2475.08 370.616C2475.08 370.616 2517.08 368.416 2548.72 371.486C2615.15 377.967 2574.59 454.498 2568.69 463.162Z" fill="#373481"/>
<path d="M312.185 2174.28C265.1 2172.24 263.296 2220.13 263.296 2220.13H303.273H321.097H359.564C359.564 2220.13 359.271 2172.24 312.185 2174.28" fill="#272253"/>
<path d="M589.309 2174.28C542.224 2172.24 540.42 2220.13 540.42 2220.13H580.397H598.223H636.689C636.689 2220.13 636.396 2172.24 589.309 2174.28" fill="#272253"/>
<path d="M642.013 2188.72L544.96 2187.49L521.787 2187.2C521.787 2187.2 474.107 1984.97 455.947 1760.53C455.333 1753.01 454.627 1746.16 453.853 1739.79V1341.93C523.613 1353.24 587.747 1370.17 587.747 1370.17L591.507 1420.57L591.733 1424.09L642.013 2188.72" fill="#2F2C60"/>
<path d="M481.681 1368.75V1517.21C481.681 1517.21 467.928 1520.79 466.153 1530.64C464.379 1540.48 459.411 1934.67 370.949 2188.72H253.829C253.829 2188.72 257.72 1413.8 279.321 1363.65L481.681 1368.75Z" fill="#373484"/>
<path d="M294.38 1402.79C353.169 1402.79 378.717 1360.13 378.971 1359.71L376.257 1358.12C376.008 1358.55 350.699 1400.67 292.299 1399.63L292.244 1402.77C292.959 1402.79 293.676 1402.79 294.38 1402.79" fill="#272253"/>
<path d="M590.34 1404.91C560.44 1392.57 547.112 1369.96 546.917 1369.65L549.633 1368.07C549.809 1368.36 562.157 1388.55 590.017 1400.59L590.34 1404.91Z" fill="#272253"/>
<path d="M490.289 880.76C499.117 869.72 462.905 865.56 462.803 864.84C457.94 830.627 454.069 792.413 454.069 792.413L366.136 783.053C364.22 810.04 366.028 834.013 358.064 865.253C357.9 865.907 315 870.773 360.748 917.72C384.251 941.853 482.777 927.893 490.289 880.76" fill="#965C2E"/>
<path d="M689.551 1153.47C688.788 1159.69 688.06 1166.64 687.617 1173.19C686.819 1184.89 677.928 1194.04 666.375 1196.08C603.237 1207.25 590.517 1188.48 590.517 1188.48C576.161 1227.49 595.891 1327.71 597.025 1360.36C597.221 1366.37 592.36 1371.33 586.361 1371.23L284.12 1366.61C274.84 1366.47 267.493 1358.73 267.848 1349.45C268.079 1343.29 268.008 1335.51 267.707 1326.68C266.197 1285.29 259.224 1221.19 252.533 1196.16C240.556 1151.28 220.612 1082.35 208.845 1019.6C202.449 985.493 202.273 972.12 203.52 941.96C205.337 898.08 217.556 894.347 229.695 888.28C249.445 878.413 284.452 869.867 358.716 862.627C358.52 863.68 358.125 865.387 358.125 866.453C358.125 883.133 393.735 897.987 422.677 896.093C447.077 894.493 462.612 876.4 462.612 866.36C462.612 864.947 462.447 863.427 462.392 861.693C541.749 867.987 589.484 888.587 589.484 888.587C589.484 888.587 660.625 987.56 687.404 1107.56C690.776 1122.63 691.449 1138.16 689.551 1153.47" fill="#D1872B"/>
<path d="M571.537 1089.24C568.215 1089.24 565.823 1089.09 565.823 1089.09C588.007 1063.37 563.457 972.573 563.457 972.573C563.457 972.573 603.56 1065.47 591.061 1085.04C588.761 1088.65 578.248 1089.24 571.537 1089.24Z" fill="#C87A26"/>
<path d="M291.839 1358.12C290.025 1358.12 288.095 1357.97 286.037 1357.65C263.412 1354.09 283.376 1288.44 271.841 1244.08C260.307 1199.72 260.749 1180.19 260.749 1180.19L498.095 1157.57L507.856 1170.44C507.856 1170.44 366.855 1223.67 340.199 1231.65C313.543 1239.64 316.204 1343.45 316.204 1343.45C316.204 1343.45 309.969 1358.12 291.839 1358.12Z" fill="#C87A26"/>
<path d="M330.989 1093.77C322.589 1093.77 330.627 1067.6 330.627 1067.6C330.627 1067.6 301.345 993.067 312.768 981.04C314.16 979.573 315.673 978.933 317.256 978.933C317.739 978.933 318.229 978.987 318.724 979.107L318.723 979.093C318.723 979.093 318.809 979.08 318.975 979.08C320.543 979.08 329.175 980.613 337.721 1012.72L345.849 1048.23C347.179 1064.91 346.988 1084.25 336.511 1091.47C334.163 1093.08 332.357 1093.77 330.989 1093.77" fill="#C87A26"/>
<path d="M623.151 1080.24C576.165 1057.09 546.563 1094.56 546.563 1094.56L535.339 1098.75L513.771 1103.89L368.807 1113.17C368.807 1113.17 353.407 1191.39 336.511 1199.67C336.511 1199.67 484.849 1187.88 553.577 1137.52L562.231 1131.76C574.637 1131.47 588.827 1126.43 600.899 1117.6C619.096 1104.31 615.459 1109.48 628.577 1100.31C641.696 1091.12 623.151 1080.24 623.151 1080.24" fill="#965C2E"/>
<path d="M611.272 1114.71C614.551 1115.27 617.447 1117.17 619.221 1119.99C630.087 1137.21 666.583 1198.95 631.821 1199.56C591.421 1200.28 532.027 1198.53 454.248 1148.84C423.376 1129.12 386.403 1112.28 386.403 1112.28L345.484 1115.57C345.484 1115.57 325.943 1071.19 336.511 1068.69C378.109 1058.85 368.289 1058.11 384.301 1059C395.663 1059.64 403.315 1060 436 1077.31C465.723 1093.05 515.559 1098.56 611.272 1114.71" fill="#A56D3C"/>
<path d="M288.995 931C288.995 931 334.837 1006.15 345.484 1115.57C345.484 1115.57 369.908 1109.61 374.173 1115.57C387.691 1134.47 364.243 1193.41 336.511 1199.67C336.511 1199.67 261.933 1208.15 243.892 1201.93C243.892 1201.93 226.16 1160.05 205.337 998.72L288.995 931Z" fill="#D1872B"/>
<path d="M275.561 2094.17C284.976 2032.07 292.764 1958.37 297.051 1881.48C297.705 1869.72 298.307 1857.63 298.841 1845.53C299.428 1832.19 299.941 1818.67 300.367 1805.36C300.512 1800.79 299.256 1795.51 298.04 1790.39C296.909 1785.63 295.743 1780.72 295.84 1776.77C297.096 1726.16 296.059 1679.81 295.145 1638.92C294.907 1628.19 294.672 1617.69 294.483 1607.4C292.771 1514.41 292.123 1461.72 292.145 1461.2C292.121 1461.72 289.808 1514.15 291.521 1607.27C291.711 1617.56 291.945 1628.05 292.185 1638.79C293.097 1679.64 294.133 1725.95 292.879 1776.48C292.769 1780.89 293.995 1786.04 295.177 1791.01C296.337 1795.91 297.536 1800.95 297.405 1805.04C296.983 1818.35 296.469 1831.84 295.884 1845.17C295.351 1857.25 294.749 1869.35 294.095 1881.08C289.815 1957.87 284.111 2032.23 274.712 2094.21L275.561 2094.17" fill="#2F2C60"/>
<path d="M465.964 804.294C465.964 804.294 366.932 827.293 353.556 765.4C340.179 703.507 318.388 664.8 381.052 647.494C443.715 630.187 461.145 651.147 470.635 670.707C480.124 690.28 491.379 796.707 465.964 804.294Z" fill="#A56D3C"/>
<path d="M353.556 765.4C353.556 765.4 346.153 683.787 435.207 667.52C499.864 655.72 485.675 600.894 485.675 600.894C485.675 600.894 379.159 614.467 358.187 620.48C259.059 648.96 342.152 753.88 353.556 765.4" fill="#575BA5"/>
<path d="M2200.54 1242.44H1341.11V0.278642H2200.54V1242.44Z" fill="#CFD4EC"/>
<path d="M1419.49 943.384H2122.16C2133.17 943.384 2142.19 934.367 2142.19 923.355C2142.19 912.343 2133.17 903.341 2122.16 903.341H1419.49C1408.47 903.341 1399.46 912.343 1399.46 923.355C1399.46 934.367 1408.47 943.384 1419.49 943.384Z" fill="#F0F3F9"/>
<path d="M2122.16 995.431H1419.49C1408.47 995.431 1399.46 1004.44 1399.46 1015.45C1399.46 1026.46 1408.47 1035.47 1419.49 1035.47H2122.16C2133.17 1035.47 2142.19 1026.46 2142.19 1015.45C2142.19 1004.44 2133.17 995.431 2122.16 995.431Z" fill="#F0F3F9"/>
<path d="M2122.16 1087.52H1419.49C1408.47 1087.52 1399.46 1096.53 1399.46 1107.55C1399.46 1118.56 1408.47 1127.56 1419.49 1127.56H2122.16C2133.17 1127.56 2142.19 1118.56 2142.19 1107.55C2142.19 1096.53 2133.17 1087.52 2122.16 1087.52Z" fill="#F0F3F9"/>
<path d="M2059.66 403.539C2059.66 563.069 1930.34 692.387 1770.81 692.387C1611.28 692.387 1481.97 563.069 1481.97 403.539C1481.97 244.023 1611.28 114.705 1770.81 114.705C1930.34 114.705 2059.66 244.023 2059.66 403.539Z" fill="#F0F3F9"/>
<path d="M1979.62 435.379C1925.26 407.219 1887.97 395.556 1890.15 359.82C1892.35 324.071 1875.92 170.238 1771.45 210.495C1771.45 210.495 1754.69 203.041 1747.17 204.155C1747.17 204.155 1753.31 205.336 1756.43 208.54C1744.32 207.834 1726.99 208.73 1712.55 216.945C1704.62 221.452 1696.88 233.387 1690.08 249.951C1689.64 251.024 1689.19 252.124 1688.77 253.251C1685.95 260.528 1683.29 268.62 1680.88 277.31C1676.67 292.503 1673.23 309.502 1670.84 327.166V327.18C1670.05 332.95 1669.38 338.762 1668.85 344.627V344.654C1668.81 344.926 1668.79 345.197 1668.77 345.455C1664.85 388.74 1667.75 433.614 1682.01 464.177C1686.46 473.735 1692.02 481.895 1698.83 488.154C1696.12 482.547 1693.25 474.726 1690.67 463.769C1688.22 453.233 1686.07 439.846 1684.62 422.779C1684.98 425.481 1687.56 444.095 1693.77 463.633C1697.27 474.74 1701.93 486.131 1708.01 495.065C1737.98 514.725 1779.8 554.263 1817.47 595.172C1825.9 604.323 1834.11 613.515 1841.93 622.599L1841.94 622.612C1855.38 638.213 1867.68 653.406 1877.95 667.146V667.173C1878.1 667.377 1878.25 667.553 1878.4 667.757C1879.16 668.775 1879.89 669.767 1880.64 670.771C1905.12 660.71 1927.9 647.377 1948.44 631.315C1995.56 594.534 2030.95 543.442 2048.13 484.597C2031.87 468.114 2009.74 450.979 1979.62 435.379Z" fill="#B24318"/>
<path d="M1712.12 497.32C1721.79 492.814 1715.83 410.6 1715.83 410.6L1797.68 394.387C1803.36 421.32 1800.4 468.36 1810.55 470.387C1810.88 470.454 1795.2 501.574 1771.21 508.12C1745.69 515.08 1711.77 497.48 1712.12 497.32" fill="#CD8085"/>
<path d="M1793.88 238.173C1793.88 238.173 1751.63 198.639 1708.22 242.073C1708.22 242.073 1735.39 237.598 1793.88 238.173Z" fill="#575BA3"/>
<path d="M1801.05 386.88C1801.05 386.88 1823.71 351.093 1829.15 320.48C1833.03 298.64 1821.91 217.64 1740.51 229.307C1740.51 229.307 1716.87 231.64 1694.65 246.64C1676.97 258.573 1651.47 284.347 1679.99 355.027L1687.4 378.893L1801.05 386.88" fill="#C4541C"/>
<path d="M1948.45 631.307C1927.91 647.373 1905.12 660.707 1880.64 670.773C1879.96 671.053 1879.27 671.333 1878.59 671.6C1878.48 670.813 1878.36 670.027 1878.25 669.24V669.227V669.213C1878.15 668.52 1878.05 667.84 1877.95 667.16V667.147C1876.33 655.987 1874.81 645.587 1873.52 636.653C1870.89 618.467 1869.12 606.373 1869.12 606.373L1887.92 604.36L1945.03 598.227C1945.03 598.227 1945.29 599.68 1945.8 604V604.013C1946.39 608.853 1947.28 617.293 1948.45 631.307" fill="#DCABB0"/>
<path d="M1647.88 468.107L1647.83 469L1639.76 582.28C1639.76 582.28 1620.63 603.147 1600.29 624.413C1599.95 624.773 1599.59 625.147 1599.24 625.507L1599.23 625.52C1597.31 627.533 1595.37 629.533 1593.45 631.52C1568.23 611.867 1546.33 588.12 1528.8 561.267C1539.97 549.547 1552.08 537.307 1564.29 525.68C1595.69 495.84 1627.92 470.12 1647.39 468.147C1647.55 468.133 1647.71 468.12 1647.84 468.107H1647.88" fill="#DCABB0"/>
<path d="M1950 602.12C1935.99 534.747 1913.33 505.547 1913.33 505.547L1913.31 505.533C1887.37 485.853 1842.69 470 1806.48 465.96C1805.96 465.893 1805.41 465.854 1804.89 465.787V465.8V465.787V465.8C1796.65 477.707 1783.16 488.6 1761.33 488.027C1738.95 487.453 1725.49 477.307 1717.56 466.773C1716.6 465.493 1715.71 464.2 1714.89 462.907C1707 463.12 1699.99 463.36 1693.77 463.627C1692.72 463.667 1691.68 463.707 1690.68 463.76C1687.59 463.893 1684.71 464.027 1682.01 464.16C1655.03 465.573 1647.89 467.133 1647.89 467.133L1647.88 467.147C1647.88 467.147 1627.49 462.907 1561.44 519.027C1561.44 519.027 1598.79 604.787 1599.23 625.52L1600.25 624.773C1599.76 628.413 1599.33 632.053 1598.95 635.693V635.707C1646.97 671.32 1706.44 692.387 1770.81 692.387C1784.95 692.387 1798.85 691.373 1812.45 689.4C1832.31 686.533 1851.52 681.653 1869.85 674.947C1872.59 673.973 1875.29 672.933 1877.97 671.84C1878.05 670.973 1878.16 670.107 1878.25 669.24V669.227V669.213C1878.29 668.72 1878.35 668.24 1878.4 667.747C1879.69 655.573 1881.28 643.747 1883.05 632.36L1950 602.12" fill="#EACF65"/>
<path d="M1701.4 432.28C1701.4 432.28 1803.67 433.96 1803.75 370.254C1803.81 306.547 1817.05 263.867 1751.76 260.093C1686.47 256.32 1673.75 280.613 1668.56 301.88C1663.36 323.133 1674.79 430.2 1701.4 432.28" fill="#DAA9AE"/>
<path d="M1705.17 258.533C1705.17 258.533 1733.19 333.267 1776.16 344.32C1819.13 355.373 1837.77 343.853 1837.77 343.853C1837.77 343.853 1804.81 317.68 1797.97 271.96C1797.97 271.96 1726.31 222.96 1705.17 258.533" fill="#C4541C"/>
<path d="M1712.12 264.6C1712.12 264.6 1691.21 281.28 1686.11 297.507C1681.01 313.733 1678.72 347.133 1668.99 345.987C1668.99 345.987 1647.88 295.187 1671.6 266.453C1696.73 235.973 1712.12 264.6 1712.12 264.6Z" fill="#C4541C"/>
<path d="M2031.39 781.975L1996.72 781.719L1986.27 748.665L1975.28 781.557L1940.61 781.301L1968.52 801.891L1957.55 834.783L1985.75 814.611L2013.66 835.214L2003.19 802.147L2031.39 781.975Z" fill="#ECD165"/>
<path d="M1889.13 780.907L1878.67 747.854L1867.71 780.747L1833.03 780.48L1860.92 801.08L1849.96 833.973L1878.17 813.8L1906.07 834.387L1895.6 801.333L1923.8 781.16L1889.13 780.907" fill="#ECD165"/>
<path d="M1781.53 780.093L1771.07 747.04L1760.11 779.933L1725.43 779.667L1753.33 800.267L1742.36 833.16L1770.57 812.987L1798.47 833.587L1788 800.52L1816.21 780.36L1781.53 780.093" fill="#ECD165"/>
<path d="M1673.93 779.28L1663.47 746.227L1652.51 779.12L1617.83 778.853L1645.73 799.453L1634.77 832.347L1662.97 812.173L1690.87 832.773L1680.4 799.707L1708.61 779.547L1673.93 779.28" fill="#ECD165"/>
<path d="M1566.33 778.467L1555.87 745.413L1544.91 778.307L1510.24 778.053L1538.13 798.64L1527.17 831.533L1555.37 811.373L1583.27 831.96L1572.8 798.907L1601.01 778.733L1566.33 778.467" fill="#ECD165"/>
<path d="M2643.56 1070.52L2606.37 1067.5C2606.37 1067.5 2564.93 1040.21 2526.15 1078.38C2526.15 1078.38 2511.42 1095.17 2527.35 1099.94C2543.29 1104.72 2538 1100.8 2560.3 1107.97C2582.58 1115.14 2606.87 1112.34 2618.73 1100.45L2631.84 1087.16L2643.56 1070.52" fill="#DAA9AE"/>
<path d="M2610.91 1065.26V1109.58C2610.91 1109.58 2821.05 1137.32 2848.63 1135.1C2865.59 1133.71 2963.39 1059.96 2981.28 1012.4C2992.44 982.724 3000.24 958.739 3000.24 958.739L3020.74 831.62C3020.74 831.62 2958.7 836.293 2948.54 856.881C2938.38 877.471 2835.2 1032.07 2827.31 1045.62C2827.31 1045.62 2631.22 1062.99 2610.91 1065.26Z" fill="#E6CA66"/>
<path d="M3043.53 775.132C3043.53 775.132 3034.11 852.417 3033.04 863.341L3120.92 893.488L3136.66 838.984C3136.66 838.984 3116.43 800.897 3120.5 744.341L3043.53 775.132" fill="#C88D94"/>
<path d="M3035.74 781.15C3035.74 781.15 3125.34 785.245 3127.04 729.409C3128.72 673.575 3141.42 636.499 3084.28 631.525C3027.16 626.549 3015.39 647.517 3010.28 666.017C3005.19 684.517 3012.47 778.647 3035.74 781.15" fill="#DAA9AE"/>
<path d="M3127.04 729.406C3127.04 729.406 3120.33 654.901 3040.52 657.573C2960.71 660.244 2975.24 567.843 3099.81 604.431C3187.11 630.073 3135.08 717.584 3127.04 729.406" fill="#575BA1"/>
<path d="M3003.92 2175.03L2989.9 2220.13H2850.7C2850.7 2220.13 2886.3 2159.28 3003.92 2175.03Z" fill="#272253"/>
<path d="M3251.15 2175.03L3238.75 2220.13H3115.49C3115.49 2220.13 3147.01 2159.28 3251.15 2175.03" fill="#272253"/>
<path d="M2961.89 1330.52L3200.58 1335.68C3200.58 1335.68 3110.6 1782.36 3006.16 2177.81L2880.17 2181.49L2961.89 1330.52" fill="#2F2C60"/>
<path d="M3228.26 1322.8C3228.26 1322.8 3297.77 1667.08 3258.05 2181.49H3150.17L3082.59 1503.4C3080.62 1483.63 3050.11 1466.28 3050.11 1466.28L3047.84 1334.19L3228.26 1322.8Z" fill="#373481"/>
<path d="M3222.63 1400.48C3161.55 1400.48 3134.99 1356.17 3134.72 1355.72L3137.55 1354.07C3137.8 1354.52 3164.17 1401.55 3224.83 1400.47C3224.11 1400.48 3223.36 1400.48 3222.63 1400.48Z" fill="#272253"/>
<path d="M3232.67 2089.33C3222.9 2024.81 3214.81 1948.25 3210.34 1868.36C3209.68 1856.15 3209.05 1843.58 3208.49 1831.01C3207.86 1817.15 3207.34 1803.11 3206.9 1789.28C3206.76 1784.52 3208.05 1779.03 3209.32 1773.72C3210.49 1768.77 3211.72 1763.67 3211.6 1759.57C3210.3 1706.99 3211.39 1658.84 3212.32 1616.34C3212.58 1605.2 3212.83 1594.29 3213.01 1583.6C3214.79 1487 3215.47 1432.25 3215.45 1431.72C3215.47 1432.25 3217.87 1486.72 3216.1 1583.45C3215.89 1594.16 3215.64 1605.07 3215.41 1616.21C3214.45 1658.67 3213.37 1706.77 3214.68 1759.28C3214.79 1763.85 3213.51 1769.2 3212.3 1774.37C3211.07 1779.45 3209.84 1784.69 3209.97 1788.95C3210.41 1802.76 3210.95 1816.79 3211.55 1830.64C3212.12 1843.2 3212.74 1855.75 3213.41 1867.95C3217.85 1947.72 3223.79 2024.97 3233.55 2089.39L3232.67 2089.33" fill="#2F2C60"/>
<path d="M2949.45 1313.64C2949.89 1326.41 2954.48 1335.53 2967.27 1335.36C2967.27 1335.36 3059.48 1338.41 3089.87 1337.99C3123.38 1337.52 3222.87 1331.77 3222.87 1331.77L3228.38 1331.69C3240.19 1331.52 3248.55 1320.11 3245.13 1308.79C3235.44 1276.63 3221.26 1214.23 3231.54 1148.72C3240.92 1088.71 3243.6 1035.27 3241.07 990.462C3237.07 919.639 3220.02 870.335 3195.79 850.593C3195.79 850.593 3163.73 838.616 3125.72 832.153C3116.55 846.442 3100.46 863.378 3075.75 863.363C3049.32 863.349 3036.24 845.083 3030.1 831.169C3000.01 832.413 2965.83 843.02 2954.39 850.034C2930.83 864.463 2930.12 1013.34 2943.4 1178.17C2947.78 1232.53 2948.55 1287.47 2949.45 1313.64" fill="#E6CA66"/>
<path d="M3158.74 839.265C3151.24 837.33 3142.96 835.397 3134.23 833.698C3133.15 831.156 3131.79 827.73 3130.34 823.505C3139.17 826.048 3155.32 836.916 3158.74 839.265" fill="#E9DDD0"/>
<path d="M3080.59 863.15L3078.34 859.847L3079.31 858.317C3105.38 855.062 3127.71 823.001 3127.71 823.001C3128.48 823.056 3129.35 823.234 3130.32 823.513C3131.76 827.737 3133.13 831.162 3134.21 833.706C3131.41 833.164 3128.58 832.644 3125.71 832.156C3117.14 845.492 3102.57 861.136 3080.59 863.15Z" fill="#C98B7F"/>
<path d="M3103.88 897.576L3080.58 863.151C3102.57 861.137 3117.15 845.494 3125.7 832.157C3128.58 832.645 3131.42 833.164 3134.2 833.709C3142.93 835.408 3151.22 837.339 3158.72 839.277C3159.14 839.565 3159.37 839.724 3159.37 839.724C3163 869.711 3103.88 897.576 3103.88 897.576" fill="#E1BC5A"/>
<path d="M3011.56 1202.67L3002.17 1198.62C3002.17 1198.62 2974.2 1239.6 2923.82 1219.02C2923.82 1219.02 2903.82 1209.07 2916.75 1198.62C2929.67 1188.15 2926.28 1193.78 2944.19 1178.68C2962.07 1163.58 2985.61 1156.95 3001.09 1163.44L3018.26 1170.78L3011.56 1202.67" fill="#DAA9AE"/>
<path d="M3035.58 841.269C3033.32 837.854 3031.53 834.393 3030.1 831.167C3027.01 831.293 3023.87 831.519 3020.71 831.831L3020.74 831.613C3020.74 831.613 3019.11 831.737 3016.32 832.034C3023.91 827.785 3032.95 823.185 3037.82 822.374C3037.03 828.931 3036.27 835.419 3035.58 841.269" fill="#E9DDD0"/>
<path d="M3015.64 832.41C3015.87 832.288 3016.09 832.163 3016.32 832.04C3019.1 831.745 3020.74 831.62 3020.74 831.62L3020.7 831.839C3019.02 832.005 3017.34 832.197 3015.64 832.41Z" fill="#E1BC5A"/>
<path d="M3075.79 863.357C3075.79 863.357 3075.79 863.357 3075.77 863.357C3055.49 863.347 3043.05 852.569 3035.58 841.266C3036.26 835.416 3037.03 828.929 3037.83 822.371C3038.15 822.319 3038.43 822.284 3038.71 822.264C3038.71 822.264 3053.77 858.377 3077.46 858.377C3078.08 858.377 3078.69 858.353 3079.33 858.302V858.309C3078.69 858.389 3078.08 858.451 3077.44 858.495L3078.35 859.84L3076.13 863.357C3076.01 863.357 3075.91 863.357 3075.79 863.357" fill="#C98B7F"/>
<path d="M3054.36 897.568C3054.36 897.568 3004.97 867.765 3003.48 839.621C3003.48 839.621 3008.91 836.205 3015.67 832.401C3017.36 832.189 3019.03 831.998 3020.72 831.831C3023.88 831.519 3027 831.292 3030.1 831.167C3031.53 834.392 3033.32 837.854 3035.59 841.268C3043.03 852.57 3055.47 863.349 3075.78 863.359H3075.8C3075.9 863.359 3076.01 863.359 3076.11 863.359L3054.36 897.568" fill="#E1BC5A"/>
<path d="M3078.35 859.84L3077.44 858.495C3078.08 858.451 3078.69 858.389 3079.33 858.309L3078.35 859.84" fill="#CA896E"/>
<path d="M3097.46 859.289H3061.76C3061.76 859.289 3057.44 860.729 3058.89 866.201C3060.33 871.671 3073.57 885.494 3078.03 885.783C3082.5 886.071 3108.13 868.502 3097.46 859.289" fill="#373481"/>
<path d="M3038.33 817.973C3038.33 817.973 3050.54 856.622 3077.42 858.504L3051.8 892.748C3051.8 892.748 3004.21 863.473 3002.72 835.333C3002.72 835.333 3029.72 818.606 3038.33 817.973" fill="#E6CA66"/>
<path d="M3128.7 818.487C3128.7 818.487 3104.33 856.614 3077.43 858.494L3102.94 893.482C3102.94 893.482 3157.91 867.857 3159.4 839.716C3159.4 839.716 3137.33 819.119 3128.7 818.487Z" fill="#E6CA66"/>
<path d="M3084.27 883.517C3084.27 883.517 3072.77 969.856 3072.77 994.496C3072.77 1098.12 3088.91 1259.05 3088.91 1259.05C3088.91 1259.05 3090.52 1277.27 3077.46 1291.33C3064.4 1305.38 3050.92 1314.88 3050.92 1314.88C3050.92 1314.88 3032.76 1298.72 3026.23 1269.28C3021.88 1249.68 3015.99 1128.48 3040.09 998.834C3050.14 944.8 3071.67 881.625 3071.67 881.625C3071.67 881.625 3081.42 880.321 3084.27 883.517Z" fill="#575BA1"/>
<path d="M3222.88 1331.77C3195.19 1322.78 3163.7 1304.32 3142.29 1266.88C3096 1185.88 3106.61 1025.84 3142.29 978.662C3150.35 968.005 3161.29 963.88 3173.41 963.88C3195.55 963.88 3221.58 977.626 3241.08 990.464C3241.67 1000.97 3241.98 1011.94 3241.98 1023.36C3241.98 1060.68 3238.72 1102.78 3231.52 1148.72C3228.99 1164.84 3227.96 1180.77 3227.96 1196.12C3227.96 1243.11 3237.82 1284.55 3245.12 1308.79C3245.64 1310.51 3245.9 1312.24 3245.9 1313.93C3245.92 1323.32 3238.38 1331.55 3228.36 1331.69L3222.88 1331.77Z" fill="#E1BC5A"/>
<path d="M3159.39 839.722C3159.39 839.722 3198.21 843.301 3227.41 854.601C3256.36 865.8 3298.97 1129.44 3280.35 1165.4C3262.78 1199.34 3000.36 1206.68 3000.36 1206.68L3003.47 1168.2C3003.47 1168.2 3162.38 1130.59 3211.52 1113.67L3159.39 839.722" fill="#E6CA66"/>
<path d="M3007.74 1025.11H2777.49L2825.15 1192.88H3053.47L3007.74 1025.11Z" fill="#2F2C60"/>
<path d="M3004.19 1025.11H2773.95L2821.63 1192.88H3049.92L3004.19 1025.11Z" fill="#373481"/>
<path d="M3118.49 1198.67H2821.63V1192.88H3118.49V1198.67Z" fill="#2F2C60"/>
<path d="M2915.48 1113.04C2915.48 1105.84 2909.64 1098.55 2902.44 1096.75C2895.24 1094.96 2889.4 1099.33 2889.4 1106.53C2889.4 1113.73 2895.24 1121.03 2902.44 1122.83C2909.64 1124.61 2915.48 1120.24 2915.48 1113.04Z" fill="#CFD4EC"/>
<path d="M1977.41 2093.47V1648.87C1977.41 1640.29 1970.38 1633.27 1961.81 1633.27H1922.47C1913.88 1633.27 1906.87 1640.29 1906.87 1648.87V2093.47C1839.92 2106.51 1785.99 2155.91 1766.45 2220.29H2117.83C2098.29 2155.91 2044.34 2106.51 1977.41 2093.47Z" fill="#D1872B"/>
<path d="M1129.66 1096.57C1129.66 1096.57 1133.05 1037.33 1056.51 1040.81C979.972 1044.31 971.533 1113.99 977.496 1142.73C983.457 1171.48 1012.2 1195 1033.11 1193.69C1054.02 1192.39 1074.27 1185.43 1074.27 1185.43L1129.66 1096.57Z" fill="#2F2C60"/>
<path d="M1440.17 1549.32C1411.37 1522.43 1381.89 1542.97 1381.89 1542.97L1281.77 1510.65L1261.31 1545.51L1373.57 1567.05C1382.37 1575.44 1400.01 1577 1416.01 1571.39C1432.01 1565.77 1428.25 1568.72 1439.71 1564.96C1451.15 1561.2 1440.17 1549.32 1440.17 1549.32Z" fill="#A56D3C"/>
<path d="M1388.69 1828.51C1388.65 1828.71 1388.64 1828.91 1388.61 1829.09C1383.93 1863.07 1373.03 1890.33 1363.2 1906.88C1338.07 1949.25 1290.41 1996.41 1176.13 2011.84C1170.6 2012.56 1164.89 2013.25 1159.03 2013.84C1148.37 2014.92 1137.15 2015.73 1125.38 2016.28C1123.89 2016.35 1122.39 2016.4 1120.88 2016.44C1087.64 2015.61 1050.45 2009.52 1008.96 1999.68C923.815 1979.48 868.345 1937.89 833.269 1887.32L833.253 1887.31C822.511 1871.83 813.689 1855.51 806.495 1838.69C787.011 1793.19 779.556 1744.13 778.856 1698.64C779.508 1655.45 786.197 1616.49 793.652 1588.77C799.447 1567.16 808.464 1546.61 820.72 1528.52C823.927 1523.76 827.377 1519.16 831.072 1514.76C842.741 1500.75 856.724 1488.71 873.065 1479.4C913.74 1456.21 1047.52 1433.12 1160.83 1492.92C1369.41 1602.96 1400.81 1738.92 1388.69 1828.51" fill="#AA3D0C"/>
<path d="M1299.31 2187.48H1133.37V1934.01H1086.97V2187.48H914.361C905.38 2187.48 898.032 2194.83 898.032 2203.8C898.032 2212.79 905.38 2220.13 914.361 2220.13H1299.31C1308.29 2220.13 1315.64 2212.79 1315.64 2203.8C1315.64 2194.83 1308.29 2187.48 1299.31 2187.48Z" fill="#D1872B"/>
<path d="M1388.61 1829.09C1383.93 1863.07 1373.03 1890.33 1363.2 1906.88C1338.07 1949.25 1290.41 1996.41 1176.13 2011.83C1170.95 2012.52 1165.61 2013.16 1160.13 2013.72L1160.01 2013.73C1159.69 2013.77 1159.36 2013.81 1159.03 2013.84C1148.36 2014.92 1137.15 2015.73 1125.39 2016.28C1123.88 2016.35 1122.39 2016.4 1120.88 2016.44C1087.64 2015.61 1050.45 2009.52 1008.96 1999.68C1007.23 1999.27 1005.49 1998.85 1003.79 1998.41C1002.71 1998.15 1001.64 1997.88 1000.57 1997.59C999.653 1997.36 998.76 1997.12 997.853 1996.88C995.053 1996.13 992.28 1995.36 989.547 1994.56C988.84 1994.36 988.147 1994.15 987.453 1993.95C986.227 1993.59 985.013 1993.21 983.813 1992.84C982.187 1992.35 980.587 1991.84 979 1991.32C977.4 1990.81 975.827 1990.28 974.253 1989.75C972.48 1989.15 970.732 1988.53 968.987 1987.92C967.92 1987.53 966.853 1987.15 965.8 1986.76C962.907 1985.69 960.067 1984.6 957.253 1983.48C956.52 1983.2 955.787 1982.89 955.053 1982.6L951.853 1981.28C951.72 1981.21 951.587 1981.16 951.453 1981.11C950.053 1980.52 948.653 1979.92 947.28 1979.32C945.773 1978.65 944.28 1977.99 942.8 1977.31C941.547 1976.75 940.307 1976.17 939.08 1975.57C938.933 1975.51 938.787 1975.44 938.64 1975.37C937.321 1974.75 936.013 1974.12 934.72 1973.48C933.56 1972.92 932.427 1972.35 931.292 1971.77C931.013 1971.63 930.732 1971.48 930.453 1971.35C929.307 1970.76 928.173 1970.16 927.04 1969.57C925.427 1968.71 923.813 1967.84 922.213 1966.96C921.093 1966.35 919.987 1965.72 918.893 1965.09C917.613 1964.37 916.36 1963.64 915.107 1962.89C913.853 1962.16 912.6 1961.41 911.373 1960.65C910.187 1959.93 909 1959.2 907.827 1958.45C906.907 1957.87 905.987 1957.27 905.067 1956.68C904.399 1956.27 903.747 1955.83 903.107 1955.4C902.253 1954.83 901.413 1954.27 900.573 1953.71C899.399 1952.91 898.24 1952.11 897.093 1951.31C894.787 1949.69 892.52 1948.05 890.307 1946.39C889.2 1945.57 888.12 1944.73 887.04 1943.91C886.093 1943.19 885.173 1942.45 884.253 1941.73C881.96 1939.89 879.72 1938.05 877.52 1936.19C876.573 1935.39 875.64 1934.57 874.707 1933.76C873.933 1933.08 873.173 1932.4 872.413 1931.72C871.653 1931.04 870.893 1930.35 870.147 1929.65C869.387 1928.97 868.653 1928.28 867.907 1927.57C867.147 1926.87 866.4 1926.15 865.653 1925.43C864.705 1924.52 863.76 1923.6 862.84 1922.67C862.067 1921.89 861.293 1921.12 860.533 1920.35C858 1917.76 855.547 1915.13 853.16 1912.47C852.547 1911.8 851.96 1911.13 851.373 1910.47L851.093 1910.15C850 1908.91 848.933 1907.67 847.88 1906.41C846.413 1904.68 844.973 1902.92 843.573 1901.16C843 1900.44 842.425 1899.72 841.867 1899C840.387 1897.11 838.947 1895.21 837.533 1893.29C836.84 1892.35 836.147 1891.39 835.453 1890.43C834.707 1889.39 833.973 1888.35 833.253 1887.31C825.36 1874.52 818.667 1861.21 813.053 1847.57C857.933 1833.96 955.453 1808.24 1064.59 1803.63C1066.47 1803.55 1068.36 1803.47 1070.24 1803.4C1101.07 1802.31 1132.76 1802.95 1164.4 1806.03C1241.27 1813.53 1321.11 1821.88 1388.61 1829.09" fill="#B85223"/>
<path d="M1174.97 1303.91L1077.15 1295.25C1077.15 1295.25 1085.65 1256.43 1083.89 1197.08L1154.07 1218.44C1154.07 1218.44 1144.73 1272.71 1174.97 1303.91" fill="#965C2E"/>
<path d="M1176.92 1247.33C1176.92 1247.33 1092.63 1262.73 1083.86 1210.09C1075.08 1157.45 1058.29 1123.99 1111.74 1111.93C1165.19 1099.88 1179.01 1118.21 1186.23 1135.08C1193.43 1151.93 1198.63 1241.99 1176.92 1247.33" fill="#A56D3C"/>
<path d="M1632.21 2163.39L1680.07 2212.17L1708.79 2191.72L1667.56 2099.79L1632.21 2163.39" fill="#DEADB2"/>
<path d="M1065.32 1688.72C1060.3 1699.21 994.121 1818.29 1103.98 1850.03C1213.84 1881.76 1489.15 1854.89 1489.15 1854.89C1489.15 1854.89 1495.09 1948.32 1526.17 1992.09C1576.09 2062.39 1703.11 2192.47 1703.11 2192.47L1726.32 2191.72C1726.32 2191.72 1572.28 1783.95 1536.48 1757.91C1510.29 1738.87 1378.52 1705.16 1305.68 1693.85C1287.95 1691.11 1180.56 1687.84 1151.81 1686.72C1106.77 1684.95 1068.11 1682.88 1065.32 1688.72" fill="#965C2E"/>
<path d="M1687.21 2183.73L1698.23 2220.13H1807.44C1807.44 2220.13 1779.49 2171.03 1687.21 2183.73Z" fill="#373484"/>
<path d="M1021.77 1688.72C1016.75 1699.21 950.565 1818.29 1060.43 1850.03C1170.29 1881.76 1427.08 1867.96 1427.08 1867.96C1427.08 1867.96 1451.53 1948.32 1482.61 1992.09C1532.53 2062.39 1659.56 2192.47 1659.56 2192.47L1708.79 2191.72C1708.79 2191.72 1528.73 1783.95 1492.92 1757.91C1466.73 1738.87 1334.96 1705.16 1262.12 1693.85C1244.39 1691.11 1137 1687.84 1108.26 1686.72C1063.21 1684.95 1024.55 1682.88 1021.77 1688.72" fill="#A56D3C"/>
<path d="M1528.99 1753.45C1528.53 1753.37 1525.31 1752.79 1486.65 1754.09C1445.81 1755.49 1403.79 1877.97 1403.79 1877.97C1368.25 1883.6 1120.05 1872.76 1021.65 1843.61C998.184 1836.65 983.235 1828.67 981.719 1819.6C979.289 1805.03 982.817 1784.97 988.855 1764.27C1002.25 1718.16 1028.04 1668.69 1028.04 1668.69C1039.62 1674.45 1057.45 1677.89 1077.2 1679.84C1129.06 1684.93 1194.19 1679.8 1194.19 1679.8C1309.99 1666.2 1524.33 1748.51 1528.99 1753.45Z" fill="#575BA5"/>
<path d="M1325.75 1524.85L1319.95 1546.84L1317.45 1556.28C1317.45 1556.28 1233.23 1547.69 1231.31 1535.47C1230.35 1529.32 1214.93 1480.64 1199.85 1433.73C1184.93 1387.32 1170.33 1342.67 1170.33 1342.67L1162.59 1286.07C1162.59 1286.07 1213.53 1295.65 1218.67 1302.16C1231.04 1317.84 1269.29 1499.79 1269.29 1499.79C1273.12 1501.04 1325.75 1524.85 1325.75 1524.85" fill="#575BA5"/>
<path d="M1230.09 1556.28H1319.95V1449.69H1230.09V1556.28Z" fill="#51539E"/>
<path d="M1205.84 1618.73C1209.53 1644.16 1226.28 1678.39 1226.28 1678.39L1225.64 1678.47L1010.32 1706.31C1010.32 1706.31 1014.49 1695.76 1019.9 1679.31C1030.97 1645.63 1047.26 1587.23 1043.73 1543.87C1042.14 1524.43 1041.43 1482.16 1038.03 1431.91C1035.57 1395.53 1031.69 1354.96 1025.04 1315.84C1025.04 1315.84 1055.16 1294.76 1078.27 1289.35C1116.77 1280.31 1163.13 1286.81 1218.67 1302.16C1218.67 1302.16 1267.44 1480.75 1207.33 1598.35C1204.83 1603.25 1204.65 1610.53 1205.84 1618.72V1618.73" fill="#575BA5"/>
<path d="M1088.86 1097.88C1088.86 1097.88 1068.53 1090.47 1055.61 1103.11C1042.69 1115.73 1056.51 1131.41 1056.51 1131.41L1088.86 1097.88Z" fill="#C5541D"/>
<path d="M1083.86 1210.09C1083.86 1210.09 1117.39 1202.84 1116.09 1168.87C1114.78 1134.89 1149.6 1122.55 1182.17 1127.09C1182.17 1127.09 1182.08 1085.24 1097.14 1093.73C1012.2 1102.23 1083.86 1210.09 1083.86 1210.09" fill="#373484"/>
<path d="M1078.27 1289.35C1078.27 1289.35 1108.57 1332.53 1151.69 1331.23C1151.69 1331.23 1170.56 1298.41 1162.59 1286.08C1154.63 1273.73 1078.27 1289.35 1078.27 1289.35Z" fill="#965C2E"/>
<path d="M1491.47 1402.99H1766.87L1709.84 1603.67H1436.77L1491.47 1402.99Z" fill="#373481"/>
<path d="M1495.71 1402.99H1771.09L1714.08 1603.67H1441L1495.71 1402.99Z" fill="#575B9F"/>
<path d="M1359 1610.59H1714.08V1603.67H1359V1610.59Z" fill="#373481"/>
<path d="M1601.83 1508.16C1601.83 1499.55 1608.8 1490.83 1617.41 1488.68C1626.03 1486.53 1633.01 1491.77 1633.01 1500.39C1633.01 1509 1626.03 1517.72 1617.41 1519.87C1608.8 1522.01 1601.83 1516.77 1601.83 1508.16Z" fill="#DADFEF"/>
<path d="M1139.66 1681.08C1141.62 1680.31 1204.37 1655.49 1205.84 1618.73C1209.53 1644.16 1226.28 1678.39 1226.28 1678.39L1225.64 1678.47C1216.92 1678.21 1205.89 1677.99 1194.39 1677.99C1174.53 1677.99 1153.21 1678.67 1139.66 1681.08" fill="#51539E"/>
<path d="M1375.97 1879.71C1376.01 1879.6 1376.05 1879.48 1376.09 1879.37C1388.96 1879.25 1398.51 1878.8 1403.68 1877.99C1403.72 1878.09 1403.75 1878.2 1403.79 1878.31C1398.63 1879.12 1388.99 1879.59 1375.97 1879.71" fill="#CBCDE2"/>
<path d="M1375.97 1879.71C1376.01 1879.6 1376.05 1879.48 1376.09 1879.37C1376.05 1879.48 1376.01 1879.6 1375.97 1879.71Z" fill="#933B24"/>
<path d="M1369.25 1879.73C1288.56 1879.73 1103.4 1868.16 1021.65 1843.93L1021.51 1843.57C1021.56 1843.59 1021.6 1843.6 1021.65 1843.61C1103.41 1867.83 1288.57 1879.41 1369.25 1879.4C1371.63 1879.4 1373.91 1879.4 1376.09 1879.37C1376.05 1879.48 1376.01 1879.6 1375.97 1879.71C1373.83 1879.72 1371.59 1879.73 1369.25 1879.73" fill="#9E4C36"/>
<path d="M992.616 1752.16C1004.25 1715.15 1017.91 1683.48 1020.4 1677.8C1020.23 1678.31 1020.07 1678.81 1019.9 1679.31C1014.49 1695.76 1010.32 1706.31 1010.32 1706.31H1010.33C1004.41 1719.93 997.956 1735.97 992.616 1752.16Z" fill="#933B24"/>
<path d="M1039.56 1457.08C1039.56 1457.08 1039.55 1457.08 1039.55 1457.08C1039.11 1449.08 1038.6 1440.77 1038.03 1432.24C1038.03 1432.24 1038.04 1432.24 1038.05 1432.25C1038.63 1440.79 1039.13 1449.08 1039.56 1457.08" fill="#CBCDE2"/>
<path d="M1044.23 1556.77C1044.22 1552.48 1044.07 1548.27 1043.73 1544.2C1042.41 1528.05 1041.7 1496.19 1039.55 1457.08C1039.55 1457.08 1039.56 1457.08 1039.56 1457.08C1041.7 1496.04 1042.42 1527.77 1043.73 1543.87C1044.07 1548.04 1044.23 1552.36 1044.23 1556.77Z" fill="#933B24"/>
<path d="M1369.25 1879.4C1288.57 1879.41 1103.41 1867.83 1021.65 1843.61C1021.6 1843.6 1021.56 1843.59 1021.51 1843.57L997.831 1783.35L988.855 1764.6C990.072 1760.4 991.332 1756.25 992.616 1752.16C997.956 1735.97 1004.41 1719.93 1010.33 1706.31L1072.4 1698.28C1063.59 1733.8 1058.36 1771.64 1077.15 1782.04C1110.16 1800.31 1377.79 1800.76 1403.68 1877.99C1398.51 1878.8 1388.96 1879.25 1376.09 1879.37C1373.91 1879.4 1371.63 1879.4 1369.25 1879.4" fill="#51539E"/>
<path d="M1010.32 1706.31C1010.32 1706.31 1014.49 1695.76 1019.9 1679.31C1020.07 1678.81 1020.23 1678.31 1020.4 1677.8C1020.65 1677.21 1020.79 1676.91 1020.8 1676.89C1030.76 1646.15 1044.25 1597.09 1044.23 1556.77C1044.23 1552.36 1044.07 1548.04 1043.73 1543.87C1042.42 1527.77 1041.7 1496.04 1039.56 1457.08C1039.13 1449.08 1038.63 1440.79 1038.05 1432.25C1046.86 1436.87 1055.7 1442.07 1062.97 1447.47C1062.67 1446.6 1062.51 1446.13 1062.51 1446.13L1081.29 1432.24C1081.29 1432.24 1119.37 1496.72 1187.01 1500.96C1187.01 1500.96 1197.56 1504.91 1187.01 1514.35C1177.65 1522.75 1098.1 1641.28 1077.2 1680.17C1075.56 1686.03 1073.93 1692.12 1072.4 1698.28L1010.33 1706.31H1010.32" fill="#51539E"/>
<path d="M1386.2 1585.17C1357.4 1558.28 1327.93 1578.81 1327.93 1578.81L1227.81 1546.51L1207.33 1581.35L1319.6 1602.89C1328.41 1611.28 1346.04 1612.85 1362.04 1607.24C1378.04 1601.63 1374.29 1604.56 1385.73 1600.81C1397.17 1597.05 1386.2 1585.17 1386.2 1585.17" fill="#A56D3C"/>
<path d="M1078.27 1289.35C1078.27 1289.35 1013.95 1303.91 1003.49 1336.13C998.639 1351.09 1067.09 1541.72 1090.61 1555.65C1114.13 1569.59 1223.69 1589.67 1223.69 1589.67L1230.13 1546.51C1230.13 1546.51 1155.94 1514.12 1149.84 1504.4C1143.75 1494.68 1078.27 1289.35 1078.27 1289.35Z" fill="#575BA5"/>
<path d="M1230.13 1546.51L1217.09 1540.68L1196.32 1586.52L1223.56 1592.24L1230.13 1546.51Z" fill="#E8CD66"/>
<path d="M1325.75 1524.85L1312.65 1518.95L1297.8 1554.52L1317.45 1556.28L1325.75 1524.85Z" fill="#E8CD66"/>
<path d="M1176.13 2011.83C1174.23 2012.08 1172.31 2012.33 1170.36 2012.56C1167.52 2012.92 1164.64 2013.25 1161.72 2013.55C1161.19 2013.61 1160.67 2013.67 1160.13 2013.72L1160.01 2013.73C1152.48 2014.8 1142.41 2015.95 1135.55 2016.25C1132.45 2016.4 1129.33 2016.49 1126.19 2016.52C1125.75 2016.53 1125.31 2016.53 1124.87 2016.52C1123.55 2016.49 1122.21 2016.47 1120.88 2016.44C1087.64 2015.61 1050.45 2009.52 1008.96 1999.68C1007.23 1999.27 1005.49 1998.85 1003.79 1998.41C1002.71 1998.15 1001.64 1997.88 1000.57 1997.59C999.653 1997.36 998.76 1997.12 997.853 1996.88C995.053 1996.13 992.28 1995.36 989.547 1994.56C988.84 1994.36 988.147 1994.15 987.453 1993.95C986.227 1993.59 985.013 1993.21 983.813 1992.84C982.187 1992.35 980.587 1991.84 979 1991.32C977.4 1990.81 975.827 1990.28 974.253 1989.75C972.48 1989.15 970.733 1988.53 968.987 1987.92C967.92 1987.53 966.853 1987.15 965.8 1986.76C962.907 1985.69 960.067 1984.6 957.253 1983.48C956.52 1983.2 955.787 1982.89 955.053 1982.6L951.853 1981.28C951.72 1981.21 951.587 1981.16 951.453 1981.11C950.053 1980.52 948.653 1979.92 947.28 1979.32C945.773 1978.65 944.28 1977.99 942.8 1977.31C941.547 1976.75 940.307 1976.17 939.08 1975.57C938.933 1975.51 938.787 1975.44 938.64 1975.37C937.32 1974.75 936.013 1974.12 934.72 1973.48C933.56 1972.92 932.427 1972.35 931.293 1971.77C931.013 1971.63 930.733 1971.48 930.453 1971.35C929.307 1970.76 928.173 1970.16 927.04 1969.57C925.427 1968.71 923.813 1967.84 922.213 1966.96C921.093 1966.35 919.987 1965.72 918.893 1965.09C917.613 1964.37 916.36 1963.64 915.107 1962.89C913.853 1962.16 912.6 1961.41 911.373 1960.65C910.187 1959.93 909 1959.2 907.827 1958.45C906.907 1957.87 905.987 1957.27 905.067 1956.68C904.4 1956.27 903.747 1955.83 903.107 1955.4C902.253 1954.83 901.413 1954.27 900.573 1953.71C899.4 1952.91 898.24 1952.11 897.093 1951.31C894.787 1949.69 892.52 1948.05 890.307 1946.39C889.2 1945.57 888.12 1944.73 887.04 1943.91C886.093 1943.19 885.173 1942.45 884.253 1941.73C881.96 1939.89 879.72 1938.05 877.52 1936.19C876.573 1935.39 875.64 1934.57 874.707 1933.76C873.933 1933.08 873.173 1932.4 872.413 1931.72C871.653 1931.04 870.893 1930.35 870.147 1929.65C869.387 1928.97 868.653 1928.28 867.907 1927.57C867.147 1926.87 866.4 1926.15 865.653 1925.43C864.707 1924.52 863.76 1923.6 862.84 1922.67C862.067 1921.89 861.293 1921.12 860.533 1920.35C858 1917.76 855.547 1915.13 853.16 1912.47C852.547 1911.8 851.96 1911.13 851.373 1910.47L851.093 1910.15C850 1908.91 848.933 1907.67 847.88 1906.41C846.413 1904.68 844.973 1902.92 843.573 1901.16C843 1900.44 842.427 1899.72 841.867 1899C840.387 1897.11 838.947 1895.21 837.533 1893.29C836.84 1892.35 836.147 1891.39 835.453 1890.43C834.707 1889.39 833.973 1888.35 833.253 1887.31C822.507 1871.83 813.68 1855.49 806.493 1838.69C787.013 1793.19 779.56 1744.13 778.853 1698.64C779.507 1655.45 786.2 1616.49 793.653 1588.77C799.44 1567.16 808.467 1546.61 820.72 1528.52C823.133 1524.93 825.68 1521.44 828.4 1518.05C829.267 1516.95 830.16 1515.85 831.067 1514.76C878.827 1564.71 986.76 1682.49 1070.24 1803.4C1120.71 1876.49 1162.24 1950.73 1176.13 2011.83" fill="#D58B2A"/>
<path d="M1170.36 2012.56C1167.52 2012.92 1164.64 2013.25 1161.72 2013.55C1161.2 2013.59 1160.67 2013.64 1160.13 2013.72L1160.01 2013.73C1152.48 2014.8 1142.41 2015.95 1135.55 2016.25C1132.45 2016.4 1129.33 2016.49 1126.19 2016.52C1125.75 2016.53 1125.31 2016.53 1124.87 2016.52C1123.55 2016.49 1122.21 2016.47 1120.88 2016.44C1087.64 2015.61 1050.45 2009.52 1008.96 1999.68C1007.23 1999.27 1005.49 1998.85 1003.79 1998.41C1002.71 1998.15 1001.64 1997.88 1000.57 1997.59C999.653 1997.36 998.76 1997.12 997.853 1996.88C995.053 1996.13 992.28 1995.36 989.547 1994.56C988.84 1994.36 988.147 1994.15 987.453 1993.95C986.227 1993.59 985.013 1993.21 983.813 1992.84C982.187 1992.35 980.587 1991.84 979 1991.32C977.4 1990.81 975.827 1990.28 974.253 1989.75C972.48 1989.15 970.733 1988.53 968.987 1987.92C967.92 1987.53 966.853 1987.15 965.8 1986.76C962.907 1985.69 960.067 1984.6 957.253 1983.48C956.52 1983.2 955.787 1982.89 955.053 1982.6L951.853 1981.28C951.72 1981.21 951.587 1981.16 951.453 1981.11C950.053 1980.52 948.653 1979.92 947.28 1979.32C945.773 1978.65 944.28 1977.99 942.8 1977.31C941.547 1976.75 940.307 1976.17 939.08 1975.57C938.933 1975.51 938.787 1975.44 938.64 1975.37C937.32 1974.75 936.013 1974.12 934.72 1973.48C933.56 1972.92 932.427 1972.35 931.293 1971.77C931.013 1971.63 930.733 1971.48 930.453 1971.35C929.307 1970.76 928.173 1970.16 927.04 1969.57C925.427 1968.71 923.813 1967.84 922.213 1966.96C921.093 1966.35 919.987 1965.72 918.893 1965.09C917.613 1964.37 916.36 1963.64 915.107 1962.89C913.853 1962.16 912.6 1961.41 911.373 1960.65C910.187 1959.93 909 1959.2 907.827 1958.45C906.907 1957.87 905.987 1957.27 905.067 1956.68C904.4 1956.27 903.747 1955.83 903.107 1955.4C902.253 1954.83 901.413 1954.27 900.573 1953.71C899.4 1952.91 898.24 1952.11 897.093 1951.31C894.787 1949.69 892.52 1948.05 890.307 1946.39C889.2 1945.57 888.12 1944.73 887.04 1943.91C886.093 1943.19 885.173 1942.45 884.253 1941.73C881.96 1939.89 879.72 1938.05 877.52 1936.19C876.573 1935.39 875.64 1934.57 874.707 1933.76C873.933 1933.08 873.173 1932.4 872.413 1931.72C871.653 1931.04 870.893 1930.35 870.147 1929.65C869.387 1928.97 868.653 1928.28 867.907 1927.57C867.147 1926.87 866.4 1926.15 865.653 1925.43C864.707 1924.52 863.76 1923.6 862.84 1922.67C862.067 1921.89 861.293 1921.12 860.533 1920.35C858 1917.76 855.547 1915.13 853.16 1912.47C852.547 1911.8 851.96 1911.13 851.373 1910.47L851.093 1910.15C850 1908.91 848.933 1907.67 847.88 1906.41C846.413 1904.68 844.973 1902.92 843.573 1901.16C843 1900.44 842.427 1899.72 841.867 1899C840.387 1897.11 838.947 1895.21 837.533 1893.29C836.84 1892.35 836.147 1891.39 835.453 1890.43C834.707 1889.39 833.973 1888.35 833.253 1887.31C822.507 1871.83 813.68 1855.49 806.493 1838.69C787.013 1793.19 779.56 1744.13 778.853 1698.64C779.507 1655.45 786.2 1616.49 793.653 1588.77C799.44 1567.16 808.467 1546.61 820.72 1528.52C823.133 1524.93 825.68 1521.44 828.4 1518.05C877.64 1569.77 982.867 1685.21 1064.59 1803.63C1114.99 1876.65 1156.48 1951.53 1170.36 2012.56" fill="#C75D1D"/>
<path d="M1648.67 2183.73L1659.68 2220.13H1768.89C1768.89 2220.13 1740.95 2171.03 1648.67 2183.73Z" fill="#575BA5"/>
<path d="M2560.75 1655.98H1323.54C1313.72 1655.98 1305.68 1647.96 1305.68 1638.13V1628.4C1305.68 1618.58 1313.72 1610.55 1323.54 1610.55H2560.75C2570.57 1610.55 2578.59 1618.58 2578.59 1628.4V1638.13C2578.59 1647.96 2570.57 1655.98 2560.75 1655.98Z" fill="#D1872B"/>
</svg>
